<svg id="Layer_1" xmlns="http://www.w3.org/2000/svg" viewBox="0 0 287.4 61.7"><style>.st0{fill:#fff}</style><g id="Final-with_new_s"><path class="st0" d="M285.1 32c-1.6-1.7-4-3-6.5-3.4-3.3-.6-6.5-.2-9.1 1.1-2.3 1.3-3.8 3.3-4.2 5.6-.4 2.1.2 4.2 1.7 6.2 1.3 1.7 5.8 5.2 6.9 5.9 1.9 1.2 2.8 2.5 2.5 3.4-.5 1.2-2.7 2-4.6 1.7-1.2-.2-3.2-1-3.3-3.9-.1-2.1-1.7-3.5-3.2-3.9s-2.8.1-3.6 1.3c-1.1 1.8-1.3 4.5-.5 6.7.5 1.3 1.2 2.5 2.2 3.4 1 1 2.1 1.7 3.5 2.3 2.5 1.1 4.9 1.7 7.1 1.7 3 0 5.7-1 7.8-3.1 2-1.9 3-4.2 2.7-6.6-.3-3.1-2.6-6.1-6.7-8.7-1.8-1.1-2.5-1.7-4-3.1-.7-.7-1.4-1.8-.9-2.4 1.1-1.4 4.8-1 6.6.4 1 .8.7 1.2.6 1.4-.5.7-.4 1.6.1 2.3.8 1.1 2.6 2 4.3 1.6.8-.2 2.3-.8 2.7-3.2.6-2.3-.2-4.8-2.1-6.7zm-265 29.5c-.2.1-.4.1-.7.1-.7.1-1.3 0-1.9-.3-.7-.3-1.1-.8-1.3-1.5-.8-2.5-1.8-4.9-2.7-7.1-.9-2.2-1.8-4.2-2.7-6.1v-.1c-.4-.9-.7-1.6-1.1-2.4-.7-2-1.5-3.8-2.2-5.5-.2-.5-.9-2-.9-2-.7-1.5-1.3-2.9-1.9-4.3-.9-2-1.8-3.8-2.6-5.6-.8-1.8-1.5-3.5-2-5.2-.3-.8-.1-1.7.6-2.5.6-.7 1.3-1.3 2.2-1.7.4-.2.8-.3 1.1-.4.5-.1 1-.2 1.5-.2 1 0 1.8.5 2.2 1.3.5 1.1 1 2.4 1.5 3.7s1 2.7 1.6 4c.6 1.4 1.1 2.7 1.7 4.1.3.6.5 1.2.8 1.7.2.4.4.7.5 1.1 0 0 0-.1.1-.1.2.4.3.6.4 1 .3.7.6 1.5.9 2.3.5 1.3 1 2.7 1.6 4.1.3.9.7 1.7 1 2.6.2.6.4.9.6 1.5.3.8.7 1.7 1.1 2.4l.6-2.1c.3-1.2.6-2.3.9-3.5.1-.3.1-.4.2-.7.3-1 .5-1.9.8-3 .4-1.2.8-2.5 1.3-3.9.1-.8.6-1.4 1.5-1.9.4-.2.7-.3 1.1-.5.2-.1.5-.1.7-.2.3-.1.6-.1.9-.1 1-.1 2 .1 2.9.4 1 .4 1.8 1 2.2 1.9 2.5 4.8 3.7 7.2 6.1 12 .1-.8.2-1.8.2-2.8.1-1.2.1-2.5.2-4.1v-6.4c.3-2.2.9-10.5.9-12.1 0-1.6 0-2.9-.1-3.9 0-.9.2-1.6.7-2.2.5-.5 1-.9 1.7-1.2.3-.1.7-.2 1-.3.3-.1.7-.1 1.1-.1.7 0 1.4.1 2 .3.7.2 1.2.5 1.6 1 .4.5.6 1 .5 1.7-.1 2-.2 4.1-.4 6.3s-.4 4.4-.7 6.7c-.1 1.8-.2 3.5-.3 5.2-.2 2.2-.4 4.5-.6 6.8-.3 2.3-.5 4.6-.8 6.8s-.6 4.4-.8 6.5c-.1.8-.6 1.5-1.4 2.1-.7.5-1.6.9-2.5 1.2-.2.1-.4.1-.6.1-.7.1-1.4.2-2.1.1-1.2-.2-1.8-.9-2-1.5v-.1c-3-5.1-4.5-7.6-7.6-12.6-.4 1-.8 2.1-1.2 3.2-.5 1.5-.9 3-1.4 4.5s-.9 3.1-1.4 4.6c-.5 1.6-1.1 3.1-1.8 4.6-.3.6-.8 1.1-1.5 1.4-.5.6-.9.8-1.3.9zm68.6-11.9c-.3 0-.7.1-1 .1-1.4.1-2.8-.1-4.2-.6-1.4-.5-2.6-1.2-3.7-2.1-.9-.7-1.7-1.6-2.4-2.7-.3.4-.6.8-.9 1.3-.7.8-2.1 2.3-3.8 3.1-.4.2-.7.3-1 .5-.7.4-3.9 1.3-4 1.4-1.2.4-2.3.7-3.4.9-.2 0-.4.1-.6.1-2 .3-3.8.2-5.5-.3-1.6-.4-3.1-1.3-4.2-2.4-1.1-1.2-1.9-2.7-2.4-4.5-.2-.8-.5-1.9-.7-3.1-.2-1.2-.3-2.5-.4-3.9s0-2.8.2-4.3.6-2.9 1.1-4.3c.6-1.4 1.4-2.6 2.4-3.8s2.4-2.1 4-2.8c1.1-.5 2.2-.8 3.3-1 .3 0 .6-.1.8-.1 1.4-.1 2.7 0 3.9.3 1.2.4 2.2 1 3 1.9s1.4 2.1 1.5 3.6c.2 1.5 0 3.1-.4 4.7s-1.2 3.1-2.3 4.5c-.8 1-1.8 2-2.9 2.8-.3.2-.7.5-1 .7-.1.1-.2.1-.2.1-1.1.7-2.4 1.2-3.9 1.6l-1.2.3c-.1 0-.2 0-.4.1.2.6.4 1.2.7 1.8.2.5.5.7 1 1 .1.1.3.2.4.3.2.2.5.3.8.4s.7.2 1 .3h.4c.3 0 .6 0 .9-.1.6-.1 1.2-.3 1.8-.6.9-.4 1.9-.9 2.7-1.5.4-.2.6-.4.9-.7l.1-.1c.3-.3.7-.6 1-.9.2-.3.4-.7.7-1.2.6-1.4 1.1-3.2 1.4-5.3.4-2.1.6-4.5.7-7.1s.2-5.2.3-7.9c0-2.7.1-5.2.1-7.5 0-2.4.1-4.4.1-6.1 0-1 .5-1.9 1.4-2.4.7-.4 1.4-.7 2.1-.8h.5c.9-.1 1.8.1 2.6.6s1.3 1.3 1.2 2.3v4.3c0 1.7.1 3.3.1 5 .1 1.7.1 3.2.1 4.7 0 1 .1 1.9.1 2.6.9-.3 1.8-.5 2.6-.6.8-.1 1.6-.2 2.3-.1 1.7.1 3.2.4 4.6 1 1.7.7 3.1 1.8 4.3 3.2 1.1 1.4 2 2.9 2.5 4.6.6 1.7.8 3.5.8 5.4s-.4 3.6-1 5.3c-.7 1.7-1.5 3.2-2.6 4.4-1.1 1.2-2.3 2.1-3.6 2.7-.6.5-1.7.8-2.7.9zM81.8 31c-.1.3-.1.7-.1 1.2v1.9c0 .7.1 1.3.1 2 .1.7.1 1.3.2 1.8.2 1.4.6 2.5 1.4 3.3.7.8 1.5 1.4 2.4 1.6.5.2 1.1.2 1.6.1s1-.3 1.5-.5c1-.6 1.8-1.8 2.3-3.5.2-.9.3-1.8.3-2.7-.1-.9-.3-1.7-.6-2.5s-.7-1.5-1.2-2.1c-.5-.6-1.1-1-1.8-1.3-.8-.4-1.8-.5-2.8-.4h-.3c-1 .2-2 .5-3 1.1zm-20.1-3.4c-.2 0-.3.1-.5.2-.4.3-.8.6-1.2 1.2-.4.5-.7 1.2-.9 1.8-.2.7-.4 1.4-.5 2.2-.1.7-.2 1.4-.2 2.1v.8c.3-.1.7-.3 1.1-.5.9-.4 1.6-.9 2.1-1.5.9-.9 1.4-1.9 1.6-2.8.2-.9.2-1.7 0-2.4-.2-.6-.5-1-1-1.1h-.5zM124 46.3h-.6c-.8-.1-1.4-.5-2-1.1s-.9-1.4-1-2.5v-.2c.3-3.1.7-6.3 1-9.6s.7-6.7 1-10c.3-3.4.7-6.7 1-10s.6-6.5 1-9.6c.4-1.2 1-2 1.9-2.4.7-.3 1.5-.5 2.2-.5h.4c.9.1 1.7.3 2.4.8 1 .6 1.2 1.3 1.2 1.8v.3c2.2-.6 4.5-1 6.6-1.2.9-.1 1.8-.1 2.6-.1 1.5 0 2.9.2 4.2.5 2.1.5 3.9 1.4 5.4 2.7 1.5 1.3 2.7 3 3.3 5.2.3.9.3 2 .1 3.2s-.6 2.3-1.1 3.5c-.5 1.1-1.1 2.2-1.8 3.2-.4.6-.9 1.1-1.3 1.5 1.1.5 2.2 1.1 3 1.9 1.1 1 2 2.1 2.6 3.4.6 1.3 1 2.7 1.1 4.1.1 1.5-.1 2.9-.5 4.4-.4 1.4-1.3 2.8-2.5 4s-2.6 2.2-4.3 3.1c-1.7.9-3.5 1.6-5.5 2.2s-4.1 1-6.1 1.1c-1 .1-2.1.1-3.1.1s-2-.1-3-.2c-1.8-.2-3.5-.7-5-1.3-.5.6-1.1 1-1.7 1.3-.4.2-1 .4-1.5.4zm4.4-7.7c1 .5 2.1.9 3.5 1.1.8.1 1.7.2 2.5.2.7 0 1.5 0 2.2-.1 1.6-.2 3.3-.5 4.9-1 1.6-.5 3-1.1 4.3-1.9 1.2-.8 2.2-1.7 2.9-2.8s1-2.2.8-3.5c0-.4-.2-.8-.5-1.2s-.7-.9-1.2-1.3c-.8-.7-2.1-1.1-3.6-1.3-.9-.1-1.8-.2-2.8-.2-.8 0-1.6 0-2.4.1-1.8.1-3.6.3-5.4.7-1.5.3-2.9.6-4 .9-.5 4-.7 6.1-1.2 10.3zm2.1-18.2h1.1c.9 0 2-.1 3.2-.2 1.2-.1 2.5-.3 3.8-.6s2.5-.6 3.7-1.1c1.1-.4 2.1-1 2.9-1.7.8-.6 1.2-1.4 1.4-2.3.2-1.2.1-2.2-.2-3-.4-.8-1-1.4-1.8-1.8s-1.8-.7-3-.8c-.5-.1-1-.1-1.5-.1-.7 0-1.4 0-2.1.1-1.2.1-2.5.3-3.6.6-1 .3-2 .6-2.7 1-.5 4-.7 6-1.2 9.9zm60.8-4.7c-1.1-.1-2-.6-2.8-1.6-.8-1.1-1.1-2.2-.8-3.2s.9-1.7 1.8-2.2c.8-.4 1.6-.6 2.6-.5h.4c1.2.2 2.2.8 3.1 2 .6 1 .7 2 .3 2.9-.4.8-1 1.5-1.8 2-.9.4-1.8.6-2.8.6z"/><path class="st0" d="M267.6 49.5c-1.9 4-5.7 5.9-5.7 5.9-1.7.6-4.3.6-6.1.3-1.1-.2-2.1-.6-2.9-1.3-.8-.6-1.5-1.4-2.1-2.2-.6-.8-1-1.6-1.4-2.5-.2-.5-.3-1-.5-1.4-1 .8-2.1 1.4-3.2 1.9-1.4.6-2.8.9-4.3 1-.8 0-1.6 0-2.3-.1s-1.3-.3-1.9-.5c-1.4-.5-2.6-1.1-3.6-2.1-.8-.7-1.5-1.6-2.1-2.5-.8.8-1.5 1.5-2.3 2a11.8 11.8 0 0 1-4.5 2.2c-1.1.3-2.2.4-3.3.2l-1.5-.3c-1.6-.5-2.9-1.2-3.7-2.2-.8-.9-1.3-2-1.6-3.2-.2-1.2-.3-2.4-.1-3.8.2-1.3.5-2.6.8-3.9.3-1.3.7-2.6 1.1-3.8.4-1.2.6-2.3.8-3.3.1-.9.1-1.7 0-2.4-.1-.5-.4-.9-1-1.1-.3-.1-.5-.1-.8-.2-.7-.1-1.3 0-2 .4-1 .5-2 1.2-2.9 2.2-1 1-1.9 2.3-2.7 3.7-.9 1.4-1.6 2.9-2.3 4.4s-1.2 3-1.7 4.5c-.4 1.4-.7 2.7-.9 3.7v.2c-.2.6-.8 1.1-1.6 1.5-.8.3-1.6.5-2.5.5h-.4c-.7-.1-1.4-.3-2.1-.7-.6-.4-1.1-1-1.3-1.7-.6.4-1.3.8-2 1.1-1.2.5-2.4.7-3.6.6-.6-.1-1.3-.2-1.9-.4-1.7-.6-3.1-1.6-4-3-.4-.6-.7-1.3-1-2.1-.5.4-1.1.8-1.6 1.1-2.5 1.6-5 2.6-7.5 3-1.2.2-2.3.3-3.4.2-1.1-.1-2.2-.3-3.1-.7-1.9-.7-3.4-1.8-4.6-3.3-1.2-1.5-2.1-3.3-2.7-5.4-.6-2.1-.8-4.3-.7-6.7.1-1.4.2-2.9.3-4.4.2-1.6.4-3.1.7-4.7.3-1.6.7-3.2 1.1-4.7.4-1.6 1-3.1 1.6-4.6.8-1.8 1.7-3.5 2.8-5s2.4-2.8 3.8-3.8c1.5-1 3.1-1.7 5-2 .9-.1 1.8-.2 2.7-.1 1 .1 2.2.3 3.3.6 1.8.5 3 1.5 3.6 3.1.6 1.4.7 3.2.4 5.2-.3 1.9-1 4.1-2 6.4-1 2.3-2.3 4.7-3.8 7.1-1.5 2.4-3.2 4.8-5.1 7.1-1.8 2.2-3.7 4.3-5.6 6.1.2 1 .6 1.7 1.1 2.2.6.5 1.2.8 2 .9h.3c.7 0 1.5-.1 2.3-.3 1-.3 2-.7 2.9-1.3 1.3-.8 2.5-1.7 3.6-2.8.6-.6 1.2-1.2 1.7-1.8.2-1.9.6-3.8 1-5.6.5-1.9 1.1-3.6 1.7-5.2.7-1.6 1.4-2.9 2-3.8l.1-.1.1-.1c1-.7 1.9-1 2.9-1.1h.6c.7.1 1.4.3 2 .6.7.4 1.3 1.1 1.5 1.8.3.8.3 1.6-.1 2.5v.1c-.4.6-.9 1.5-1.3 2.6-.5 1.1-.9 2.3-1.3 3.5-.4 1.2-.7 2.5-1 3.9-.3 1.3-.4 2.5-.5 3.6s0 2 .1 2.8c.1.7.4 1.1.7 1.2.2.1.5.2.8.2h.5c.5-.1 1-.3 1.6-.8.7-.5 1.4-1.3 2.2-2.5.3-.4.7-.9 1-1.6.1-.8.3-1.6.4-2.5.4-2.5.9-5.8 1.5-10.1.4-1.3 1-2.2 2-2.7.8-.5 1.7-.6 2.6-.6h.3c1 .2 1.8.6 2.5 1.4.6.7 1 1.7 1 2.8.5-.4 1-.8 1.6-1.2 1-.7 2.1-1.4 3.2-1.9 1.2-.5 2.4-.9 3.8-1 .7-.1 1.5-.1 2.3 0 .6.1 1.3.2 2 .4 1.6.5 2.8 1.2 3.7 2.2s1.5 2.1 1.8 3.4c.3 1.2.4 2.6.3 4-.1 1.4-.3 2.8-.6 4.1-.3 1.4-.6 2.7-1 4s-.7 2.4-.9 3.4c-.3 1-.4 1.8-.5 2.3v.5h.2c.4.1.9 0 1.4-.2.7-.2 1.4-.7 2.1-1.3.8-.6 1.6-1.5 2.4-2.5.7-.9 1.4-2.1 2-3.4.1-.3.2-.7.3-1.1.6-1.8 1.5-3.4 2.7-4.8 1.2-1.4 2.6-2.7 4.2-3.6 1.6-1 3.4-1.6 5.3-1.8 1.1-.1 2.3-.1 3.5.1.4.1.9.2 1.3.3 1.5.4 3 1 4.5 2 .3-.6.7-1.5 1.1-2.5.6-1.4 1.2-2.8 1.9-4.3s1.4-3.1 2-4.6c.7-1.5 1.2-2.9 1.7-4 .4-.9 1.1-1.6 2-1.8.6-.1 1.3-.2 1.9-.1.3 0 .6.1.8.2.9.3 1.6.8 2.2 1.5.6.8.8 1.7.4 2.7-.6 1.5-1.3 3.5-2.2 5.7-.9 2.2-1.8 4.5-2.8 7-.9 2.5-1.8 4.9-2.7 7.4-.8 2.4-1.4 4.7-1.9 6.8-.4 2.1-.6 3.8-.5 5.3.1 1.3.5 2.2 1.2 2.6.1.1.2.1.4.1s.5 0 .9-.1c.2-.1.4-.2.7-.3.4-.4.7-.6 1.1-.9l1.1-1.1.9-.9.2-.2c2.4-1.3 7 .3 5.1 4.3zM246 32.1c-.5-.1-1.1-.1-1.6 0-.8.1-1.5.4-2.2.8-.7.4-1.4 1-2 1.6s-1.1 1.4-1.5 2.2-.6 1.7-.7 2.6c-.2 1.8.1 3.1.9 3.9.7.7 1.4 1 2.2 1.2h.7c.9 0 1.9-.3 2.9-.9 1-.6 1.8-1.5 2.5-2.7.3-.5.6-1.1.9-1.6.3-.6.6-1.2.8-1.8.3-.6.5-1.2.7-1.7.1-.4.2-.8.3-1.1-.8-.9-1.7-1.5-2.6-1.8-.4-.5-.9-.6-1.3-.7zM175.5 7.4c-.3 0-.7.1-1.1.4-.5.4-1 1-1.6 1.7-.5.8-1.1 1.7-1.6 2.7l-1.5 3.3c-.5 1.2-1 2.4-1.4 3.6-.4 1.2-.8 2.4-1.1 3.5-.3 1-.6 2-.7 2.8.2-.2.4-.4.5-.7.7-.8 1.3-1.7 2-2.7s1.3-2 2-3c.6-1 1.2-2.1 1.8-3.1.7-1.2 1.3-2.4 1.8-3.5s.8-2.1 1.1-2.9c.2-.8.3-1.4.2-1.9 0-.2-.2-.2-.4-.2v-.6c.1.3.1.4 0 .6zm-59.1 16.1c-.4-.8-.8-1-1.7-1.2-2.3-.1-4.2 0-5.7.1-1.5.2-3.4.5-5.6 1-.8.3-1.2.6-1.4 1.5-.3.9-.4 1.8-.2 2.8.1 1 .4 1.9.9 2.6.5.8 1.3 1.1 2 1 .4-.1 2.3-.6 5.2-.9 2.9-.3 4.8-.1 5.2-.1.7 0 1.4-.5 1.8-1.3.3-.8.5-1.8.4-2.8-.2-1-.4-1.9-.9-2.7z"/></g></svg>