<svg id="Layer_1" xmlns="http://www.w3.org/2000/svg" viewBox="0 0 1362.8 227.2"><style>.st0{fill:#fa8f82}.st1{fill:#f2e4e1}.st2{fill:#008cd4}.st3{fill:#19214e}.st4{fill:none;stroke:#008cd4;stroke-width:4;stroke-miterlimit:10}.st5{fill:#fba663}.st6{fill:#fcbd45}.st7{fill:#fdd426}.st8{fill:#00fec1}.st10,.st9{fill:none}.st10{stroke:#19214e;stroke-width:2.7831;stroke-miterlimit:10}.st11{fill:#998019}.st12{fill:#fffefa}.st13{opacity:.2;enable-background:new}.st14{fill:none;stroke:#fdd426;stroke-linecap:round;stroke-miterlimit:10}.st15{fill:#fce897}.st16,.st17{stroke:#998019}.st16,.st17,.st18,.st19{fill:none;stroke-miterlimit:10}.st16{stroke-linecap:round}.st17{stroke-width:8}.st18,.st19{stroke:#fce897;stroke-width:2}.st19{stroke-dasharray:8.3614,8.3614}</style><g id="Tower5"><path class="st0" d="M168.5 138.5h35v42.9h-35v-42.9z"/><path class="st1" d="M153.6 138.5h14.9v42.9h-14.9v-42.9z"/><path class="st2" d="M165 155.9v6.8h-11.4v-6.8H165zm0-13.2v6.8h-11.4v-6.8H165zm0 33.1h-11.4V169H165v6.8zm8.8-31.8h9.3v8.9h-9.3V144zm15.4 0h9.3v8.9h-9.3V144zm-15.4 12.3h9.3v8.9h-9.3v-8.9zm15.4 0h9.3v8.9h-9.3v-8.9zm-15.4 12.3h9.3v8.9h-9.3v-8.9zm15.4 0h9.3v8.9h-9.3v-8.9z"/><path class="st0" d="M168.5 95.4h35v43.2h-35V95.4z"/><path class="st1" d="M153.6 95.4h14.9v43.2h-14.9V95.4z"/><path class="st2" d="M165 112.8v6.8h-11.4v-6.8H165zm0-13.1v6.8h-11.4v-6.8H165zm0 33.1h-11.4V126H165v6.8zm8.8-31.9h9.3v8.9h-9.3v-8.9zm15.4 0h9.3v8.9h-9.3v-8.9zm-15.4 12.3h9.3v8.9h-9.3v-8.9zm15.4 0h9.3v8.9h-9.3v-8.9zm-15.4 12.3h9.3v8.9h-9.3v-8.9zm15.4 0h9.3v8.9h-9.3v-8.9z"/></g><g id="House10_1_"><g id="House10"><path class="st0" d="M175.4 142l22.4 29.4v28.4h-44.2v-29.2l21.8-28.6z"/><path class="st3" d="M175.4 142h28.1v28.4h-7.1l-21-28.4z"/><path class="st1" d="M203.5 146.9l8.2 10.7h-16.4l8.2-10.7z"/></g><path class="st0" d="M175.4 142l-21.8 29.4v28.4h21.8V142z"/></g><path class="st3" d="M516.6 100.3V129l-31.4-21.8-.1 3.3v-10.2c0-1.3.2-9.7 7.2-14.9 3.1-2.3 5.7-3.3 8.4-3.3h.2c3.5.1 6.3 1.8 8.4 3.3 7.1 5.2 7.3 13.5 7.3 14.9z"/><g id="Train"><path class="st1" d="M653.4 103.8l2 9.1h-65.8l-2-9.1c-.8-3.1.5-5.7 3.2-7.1H655c-1.7 1.8-2.4 4.3-1.6 7.1zm-129.3 16l-1.9-6.9H588l1.9 6.9c.8 2.9 3 5.5 5.8 7.3h-63.8c-3.7-1.3-6.9-4.1-7.8-7.3z"/><path class="st1" d="M591.9 119.8l-1.9-6.9h65.8l1.9 6.9c.8 2.9 3 5.5 5.8 7.3h-63.8c-3.7-1.3-6.9-4.1-7.8-7.3zm-74.2-16l2 9.1h-65.8l-2-9.1c-.8-3.1.5-5.7 3.2-7.1h64.1c-1.6 1.8-2.2 4.3-1.5 7.1zm-61.4 16l-1.9-6.9h65.8l1.9 6.9c.8 2.9 3 5.5 5.8 7.3h-63.8c-3.8-1.3-6.9-4.1-7.8-7.3zm129.3-16l2 9.1h-65.8l-2-9.1c-.8-3.1.5-5.7 3.2-7.1h64.1c-1.6 1.8-2.3 4.3-1.5 7.1z"/><path class="st1" d="M659.8 119.8l-4.4-16c-.8-3.1.5-5.7 3.2-7.1h11.8l4.9 17.9h27.8c2.8 3.8 5 8.1 6.2 12.5h-41.7c-3.8-1.3-6.9-4.1-7.8-7.3z"/><path class="st1" d="M670.5 96.7c13 0 26.6 7.8 32.7 17.9h-27.8l-4.9-17.9zm-11.9 0H517l2.7 30.4h147.9l-9-30.4z"/><path class="st0" d="M653.4 103.8l2 7.1h-65.8l-2-7.1c-.8-3.1.5-5.7 3.2-7.1H655c-1.7 1.8-2.4 4.3-1.6 7.1zm-129.3 16l-1.9-6.9H588l1.9 6.9c.8 2.9 3 5.5 5.8 7.3h-63.8c-3.7-1.3-6.9-4.1-7.8-7.3z"/><path class="st0" d="M591.9 119.8l-1.9-6.9h65.8l1.9 6.9c.8 2.9 3 5.5 5.8 7.3h-63.8c-3.7-1.3-6.9-4.1-7.8-7.3zm-74.2-16l2 7.1h-65.8l-2-7.1c-.8-3.1.5-5.7 3.2-7.1h64.1c-1.6 1.8-2.2 4.3-1.5 7.1zm-61.4 16l-1.9-6.9h65.8l1.9 6.9c.8 2.9 3 5.5 5.8 7.3h-63.8c-3.8-1.3-6.9-4.1-7.8-7.3zm129.3-16l2 7.1h-65.8l-2-7.1c-.8-3.1.5-5.7 3.2-7.1h64.1c-1.6 1.8-2.3 4.3-1.5 7.1z"/><path class="st0" d="M659.8 119.8l-4.4-16c-.8-3.1.5-5.7 3.2-7.1h11.8l4.9 17.9h27.8c2.8 3.8 5 8.1 6.2 12.5h-41.7c-3.8-1.3-6.9-4.1-7.8-7.3z"/><path class="st1" d="M670.5 96.7c13 0 26.6 7.8 32.7 17.9h-27.8l-4.9-17.9z"/></g><g id="Tower3"><path class="st0" d="M346.2 84.4h40.1v106.5h-40.1V84.4z"/><path class="st2" d="M346.2 84.4h26.9v106.5h-26.9V84.4z"/><path class="st1" d="M344.9 84.4h28.3v106.5h-28.3V84.4z"/><path class="st2" d="M349.1 92.2h11.4v11h-11.4v-11zm.4 17.6h11.4v11h-11.4v-11zm1.8 19.9h11.4v11h-11.4v-11zm0 18h11.4v11h-11.4v-11z"/><path class="st0" d="M315.2 84.4h40.1v106.5h-40.1V84.4z"/><path class="st1" d="M315.1 84.4H342v106.5h-26.9V84.4z"/><path class="st2" d="M323.1 92.2h11.4v11h-11.4zm.4 18.5h11.4v11h-11.4z"/></g><path class="st4" d="M776.6 128.5v98.2m-37.2-98.2v98.2m-37.3-98.2v98.2m-37.3-98.2v98.2m-37.3-98.2v98.2m-37.2-98.2v98.2M553 128.5v98.2m-37.3-98.2v98.2m-37.3-98.2v98.2m-37.3-98.2v98.2m467.2 0l-131.7-98.2H441.1"/><path class="st2" d="M501.8 82.1c-2.7 0-5.3 1.1-8.4 3.3-7 5.2-7.2 13.6-7.2 14.9v10.2l-.3 18.7h-47V90.8c0-4.8 4-8.7 8.9-8.7h54z"/><g id="Sun"><circle class="st0" cy="137.6" r="85.6"/><circle class="st5" cy="137.6" r="66.7"/><circle class="st6" cy="137.6" r="47.9"/><circle class="st7" cy="137.6" r="29"/></g><path class="st2" d="M7.1 107.1s-1.4 1.7-2 4.2-.2 4.6-.2 4.6 1-1.9 1.6-4.3.6-4.5.6-4.5zm-5.4 3.3s1.2 1.8 1.9 4.2c.7 2.4.8 4.5.8 4.5s-1.4-1.5-2.2-3.9-.5-4.8-.5-4.8zm8.3 2s-1.8.8-3.3 2.7c-1.5 1.9-2 4-2 4s1.7-1.2 3.1-3c1.5-1.8 2.2-3.7 2.2-3.7zm-9.3 3.3s1.3 1.7 2.2 4 1.1 4.5 1.1 4.5-1.6-1.4-2.5-3.7c-.9-2.5-.8-4.8-.8-4.8zm8.4 1.3s-1.8 1-3.1 3-1.7 4.2-1.7 4.2 1.6-1.3 2.9-3.3 1.9-3.9 1.9-3.9zm-9 4s1.4 1.6 2.6 3.8c1.1 2.2 1.5 4.3 1.5 4.3s-1.7-1.2-2.8-3.5C.2 123.4.1 121 .1 121zm8.5.6s-1.7 1.1-2.8 3.2c-1.2 2.1-1.3 4.3-1.3 4.3s1.5-1.5 2.6-3.5 1.5-4 1.5-4zm-8.7 4.7s1.6 1.4 2.9 3.6c1.3 2.1 1.9 4.2 1.9 4.2s-1.8-1.1-3.1-3.3c-1.4-2.1-1.7-4.5-1.7-4.5zm8.5-.1s-1.6 1.3-2.6 3.5-.9 4.4-.9 4.4 1.3-1.6 2.3-3.7c1-2.2 1.2-4.2 1.2-4.2zm-8.2 5.5s1.7 1.3 3.2 3.3 2.2 4 2.2 4.1c0 0-1.9-.9-3.4-3s-2-4.4-2-4.4zm8.5-.9s-1.5 1.4-2.3 3.7-.6 4.5-.6 4.5 1.2-1.7 2-3.9c.8-2.3.9-4.3.9-4.3zM1 137s1.8 1.2 3.4 3.1C6 142 7 144 7 144s-1.9-.8-3.6-2.7C1.6 139.2 1 137 1 137zm8.3-1.6s-1.3 1.5-1.9 3.8-.2 4.5-.2 4.5 1.1-1.8 1.6-4.1c.6-2.2.5-4.2.5-4.2z"/><path class="st2" d="M-11.7 111s-.3 2.2.4 4.6c.7 2.5 2.2 4.1 2.2 4.1s0-2.1-.7-4.5-1.9-4.2-1.9-4.2zm-2.9 5.5s1.9 1 3.7 2.7 2.9 3.5 2.9 3.6c0 0-2-.6-3.9-2.3-1.8-1.8-2.7-4-2.7-4zm8.1-2.4s-1.2 1.6-1.5 4c-.4 2.4.3 4.5.3 4.5s.9-1.9 1.2-4.2c.3-2.3 0-4.3 0-4.3zm-6.4 7.5s2 .8 3.9 2.3 3.2 3.3 3.2 3.3-2-.4-4-2c-2-1.5-3.1-3.6-3.1-3.6zm7.9-3.1s-1 1.7-1.2 4.1.7 4.4.7 4.4.7-1.9.9-4.3c.1-2.2-.4-4.2-.4-4.2zm-5.8 8s2 .6 4.1 2c2.1 1.4 3.5 3 3.5 3s-2.1-.2-4.2-1.6c-2.1-1.4-3.4-3.4-3.4-3.4zm7.7-3.7s-.9 1.8-.8 4.2c0 2.4 1 4.4 1 4.4s.5-2 .5-4.3c-.1-2.4-.7-4.3-.7-4.3zm-5.1 8.4s2.1.5 4.3 1.7 3.7 2.7 3.7 2.7-2.1-.1-4.3-1.3c-2.3-1.2-3.7-3.1-3.7-3.1zm7.3-4.3s-.7 1.9-.5 4.3 1.4 4.3 1.4 4.3.4-2 .1-4.4c-.2-2.4-1-4.2-1-4.2zm-4.4 8.8s2.1.3 4.4 1.3 3.9 2.4 4 2.4c0 0-2.1.1-4.4-.9-2.4-1.1-4-2.8-4-2.8zm6.9-5s-.6 1.9-.1 4.3c.4 2.4 1.8 4.2 1.7 4.2 0 0 .2-2.1-.2-4.4-.5-2.3-1.4-4.1-1.4-4.1zm-3.6 9.2s2.1.1 4.5.9 4.2 2.1 4.2 2.1-2.1.3-4.5-.6c-2.5-.8-4.2-2.4-4.2-2.4zm6.5-5.5s-.4 2 .2 4.3 2.1 4 2.1 4 0-2.1-.6-4.3c-.7-2.3-1.7-4-1.7-4z"/><path class="st2" d="M-26 123.7s.8 2 2.7 3.8c1.9 1.8 3.9 2.5 3.9 2.4 0 0-1.1-1.8-2.9-3.5-1.7-1.7-3.6-2.7-3.7-2.7zm.3 6.3s2.1-.1 4.6.5c2.4.6 4.3 1.6 4.3 1.6s-2 .5-4.5-.1c-2.6-.5-4.5-2-4.4-2zm5.8-6.1s-.2 2 .7 4.3c.9 2.2 2.5 3.8 2.5 3.7 0 0-.2-2.1-1.1-4.2-.8-2.3-2.1-3.8-2.1-3.8zm-1.8 9.7s2.1-.3 4.6.1c2.5.4 4.4 1.2 4.4 1.2s-2 .7-4.5.3-4.5-1.6-4.5-1.6zm5.3-6.7s0 2 1 4.2c1.1 2.2 2.8 3.5 2.8 3.5s-.4-2-1.4-4.1-2.4-3.6-2.4-3.6zm-1 9.8s2.1-.5 4.6-.3 4.5.9 4.5.9-1.9.8-4.4.7c-2.6-.2-4.7-1.3-4.7-1.3zm4.8-7s.1 2 1.4 4.1c1.2 2.1 3.1 3.3 3.1 3.3s-.5-2-1.7-4c-1.4-2.1-2.8-3.4-2.8-3.4zm-.3 9.8s2-.6 4.5-.7c2.5 0 4.6.5 4.6.5s-1.8 1-4.4 1.1c-2.5 0-4.7-.9-4.7-.9zm4.2-7.4s.3 2 1.7 3.9c1.4 2 3.3 3 3.3 3s-.7-1.9-2.1-3.8c-1.3-1.9-2.9-3.1-2.9-3.1zm.6 9.8s2-.8 4.4-1.1c2.5-.2 4.7.2 4.7.2s-1.8 1.1-4.3 1.4c-2.5.3-4.8-.5-4.8-.5zm3.5-7.7s.5 2 2 3.8c1.6 1.8 3.6 2.7 3.6 2.7s-.9-1.9-2.4-3.7c-1.5-1.7-3.2-2.8-3.2-2.8zm1.5 9.8s1.9-1 4.4-1.4c2.5-.5 4.6-.3 4.6-.3s-1.7 1.3-4.2 1.8c-2.5.4-4.8-.1-4.8-.1zm2.8-8.1s.6 1.9 2.4 3.6c1.7 1.7 3.8 2.4 3.8 2.4s-1-1.8-2.7-3.4c-1.7-1.6-3.5-2.6-3.5-2.6z"/><path class="st2" d="M-32 141.9s1.7 1.4 4.2 2 4.6.2 4.6.2-1.9-1-4.3-1.6c-2.3-.7-4.4-.6-4.5-.6zm3.4 5.3s1.8-1.2 4.2-1.9 4.5-.8 4.5-.8-1.5 1.4-3.9 2.2c-2.5.8-4.8.6-4.8.5zm2-8.2s.8 1.8 2.7 3.3c1.9 1.5 4 2 4 2s-1.2-1.7-3-3.1c-1.8-1.5-3.7-2.2-3.7-2.2zm3.2 9.3s1.7-1.3 4-2.2 4.5-1.1 4.5-1.1-1.4 1.6-3.7 2.5c-2.4.9-4.8.8-4.8.8zm1.3-8.4s1 1.8 3 3.1 4.2 1.7 4.2 1.7-1.3-1.6-3.3-2.9c-1.9-1.3-3.8-1.9-3.9-1.9zm4.1 9s1.6-1.4 3.8-2.6c2.2-1.1 4.3-1.5 4.3-1.5s-1.2 1.7-3.5 2.8c-2.3 1.2-4.7 1.3-4.6 1.3zm.6-8.5s1.1 1.7 3.2 2.8c2.1 1.2 4.3 1.3 4.3 1.3s-1.5-1.5-3.5-2.6c-2.1-1.1-4-1.5-4-1.5zm4.7 8.6s1.4-1.6 3.6-2.9c2.1-1.3 4.2-1.9 4.2-1.9s-1.1 1.8-3.3 3.1c-2.2 1.5-4.5 1.7-4.5 1.7zm-.1-8.5s1.3 1.6 3.5 2.6 4.4.9 4.4.9-1.6-1.3-3.7-2.3c-2.2-.9-4.2-1.2-4.2-1.2zm5.4 8.3s1.3-1.7 3.3-3.2 4-2.2 4.1-2.2c0 0-.9 1.9-3 3.4s-4.4 2-4.4 2zm-.8-8.5s1.4 1.5 3.7 2.3 4.5.6 4.5.6-1.7-1.2-3.9-2c-2.3-.8-4.3-.9-4.3-.9zm6.1 7.7s1.2-1.8 3.1-3.4c1.9-1.6 3.9-2.6 3.9-2.6s-.8 1.9-2.7 3.6c-2 1.7-4.3 2.4-4.3 2.4zm-1.5-8.4s1.5 1.3 3.8 1.9c2.3.6 4.5.2 4.5.2s-1.8-1.1-4.1-1.6c-2.2-.6-4.2-.5-4.2-.5zm45.5 2.3s-1.7 1.4-4.2 2-4.6.2-4.6.2 1.9-1 4.3-1.6c2.3-.7 4.5-.6 4.5-.6zm-3.3 5.3s-1.8-1.2-4.2-1.9-4.5-.8-4.5-.8 1.5 1.4 3.9 2.2 4.8.6 4.8.5zm-2.1-8.2s-.8 1.8-2.7 3.3c-1.9 1.5-4 2-4 2s1.2-1.7 3-3.1c1.9-1.5 3.7-2.2 3.7-2.2zm-3.2 9.3s-1.7-1.3-4-2.2-4.5-1.1-4.5-1.1 1.4 1.6 3.7 2.5c2.4.9 4.8.8 4.8.8zm-1.3-8.4s-1 1.8-3 3.1-4.2 1.7-4.2 1.7 1.3-1.6 3.3-2.9c2-1.3 3.9-1.9 3.9-1.9zm-4 9s-1.6-1.4-3.8-2.6c-2.2-1.1-4.3-1.5-4.3-1.5s1.2 1.7 3.5 2.8c2.2 1.2 4.6 1.3 4.6 1.3zm-.6-8.5s-1.1 1.7-3.2 2.8c-2.1 1.2-4.3 1.3-4.3 1.3s1.5-1.5 3.5-2.6 4-1.5 4-1.5zm-4.8 8.6s-1.4-1.6-3.6-2.9c-2.1-1.3-4.2-1.9-4.2-1.9s1.1 1.8 3.3 3.1c2.2 1.5 4.5 1.7 4.5 1.7zm.2-8.5s-1.3 1.6-3.5 2.6-4.4.9-4.4.9 1.6-1.3 3.7-2.3c2.2-.9 4.1-1.2 4.2-1.2zm-5.5 8.3s-1.3-1.7-3.3-3.2-4-2.2-4.1-2.2c0 0 .9 1.9 3 3.4s4.4 2 4.4 2zm.8-8.5s-1.4 1.5-3.7 2.3-4.5.6-4.5.6 1.7-1.2 3.9-2c2.3-.8 4.3-.9 4.3-.9zM12 148s-1.2-1.8-3.1-3.4C7 143 5.1 142 5.1 142s.8 1.9 2.7 3.6c1.9 1.7 4.2 2.4 4.2 2.4zm1.5-8.4s-1.5 1.3-3.8 1.9c-2.3.6-4.5.2-4.5.2s1.8-1.1 4.1-1.6c2.2-.6 4.2-.5 4.2-.5z"/><path class="st2" d="M35.9 123.7s-.8 2-2.7 3.8c-1.9 1.8-3.9 2.5-3.9 2.4 0 0 1.1-1.8 2.9-3.5s3.7-2.7 3.7-2.7zm-.2 6.3s-2.1-.1-4.6.5c-2.4.6-4.3 1.6-4.3 1.6s2 .5 4.5-.1c2.5-.5 4.4-2 4.4-2zm-5.9-6.1s.2 2-.7 4.3c-.9 2.2-2.5 3.8-2.5 3.7 0 0 .2-2.1 1.1-4.2.8-2.3 2.1-3.8 2.1-3.8zm1.8 9.7s-2.1-.3-4.6.1c-2.5.4-4.4 1.2-4.4 1.2s2 .7 4.5.3 4.5-1.6 4.5-1.6zm-5.3-6.7s0 2-1 4.2c-1.1 2.2-2.8 3.5-2.8 3.5s.4-2 1.4-4.1 2.4-3.6 2.4-3.6zm1 9.8s-2.1-.5-4.6-.3-4.5.9-4.5.9 1.9.8 4.4.7c2.6-.2 4.7-1.3 4.7-1.3zm-4.7-7s-.1 2-1.4 4.1c-1.2 2.1-3.1 3.3-3.1 3.3s.5-2 1.7-4c1.3-2.1 2.8-3.4 2.8-3.4zm.2 9.8s-2-.6-4.5-.7c-2.5 0-4.6.5-4.6.5s1.8 1 4.4 1.1c2.5 0 4.7-.9 4.7-.9zm-4.2-7.4s-.3 2-1.7 3.9c-1.4 2-3.3 3-3.3 3s.7-1.9 2.1-3.8c1.3-1.9 2.9-3.1 2.9-3.1zm-.6 9.8s-2-.8-4.4-1.1c-2.5-.2-4.6.2-4.6.2s1.8 1.1 4.3 1.4c2.5.3 4.7-.5 4.7-.5zm-3.5-7.7s-.5 2-2 3.8c-1.6 1.8-3.6 2.7-3.6 2.7s.9-1.9 2.4-3.7c1.5-1.7 3.2-2.8 3.2-2.8zm-1.4 9.8s-1.9-1-4.4-1.4c-2.5-.5-4.6-.3-4.6-.3s1.7 1.3 4.2 1.8c2.5.4 4.8-.1 4.8-.1zm-2.9-8.1s-.6 1.9-2.4 3.6c-1.7 1.7-3.8 2.4-3.8 2.4s1-1.8 2.7-3.4c1.7-1.6 3.5-2.6 3.5-2.6z"/><path class="st2" d="M21.6 111s.3 2.2-.4 4.6c-.7 2.5-2.2 4.1-2.2 4.1s0-2.1.7-4.5 1.9-4.2 1.9-4.2zm3 5.5s-1.9 1-3.7 2.7c-1.8 1.7-2.9 3.5-2.9 3.6 0 0 2-.6 3.9-2.3 1.8-1.8 2.7-4 2.7-4zm-8.2-2.4s1.2 1.6 1.5 4c.4 2.4-.3 4.5-.3 4.5s-.9-1.9-1.2-4.2c-.3-2.3 0-4.3 0-4.3zm6.4 7.5s-2 .8-3.9 2.3-3.2 3.3-3.2 3.3 2-.4 4-2c2-1.5 3.1-3.6 3.1-3.6zm-7.9-3.1s1 1.7 1.2 4.1-.7 4.4-.7 4.4-.7-1.9-.9-4.3c-.1-2.2.4-4.2.4-4.2zm5.8 8s-2 .6-4.1 2c-2.1 1.4-3.5 3-3.5 3s2.1-.2 4.2-1.6c2.1-1.4 3.4-3.4 3.4-3.4zm-7.7-3.7s.9 1.8.8 4.2c0 2.4-1 4.4-1 4.4s-.5-2-.5-4.3c.1-2.4.7-4.3.7-4.3zm5.2 8.4s-2.1.5-4.3 1.7-3.7 2.7-3.7 2.7 2.1-.1 4.3-1.3 3.7-3.1 3.7-3.1zm-7.4-4.3s.7 1.9.5 4.3-1.4 4.3-1.4 4.3-.4-2-.1-4.4c.3-2.4 1-4.2 1-4.2zm4.4 8.8s-2.1.3-4.4 1.3-3.9 2.4-4 2.4c0 0 2.1.1 4.4-.9 2.5-1.1 4-2.8 4-2.8zm-6.9-5s.6 1.9.1 4.3c-.4 2.4-1.8 4.2-1.7 4.2 0 0-.2-2.1.2-4.4.5-2.3 1.4-4.1 1.4-4.1zm3.6 9.2s-2.1.1-4.5.9-4.2 2.1-4.2 2.1 2.1.3 4.5-.6c2.5-.8 4.3-2.4 4.2-2.4zm-6.4-5.5s.4 2-.2 4.3-2.1 4-2.1 4 0-2.1.6-4.3c.6-2.3 1.6-4 1.7-4zm53.6-12.3s-1.4 1.7-2 4.2c-.6 2.5-.2 4.6-.2 4.6s1-1.9 1.6-4.3c.7-2.3.6-4.5.6-4.5zm-5.3 3.3s1.2 1.8 1.9 4.2c.7 2.4.8 4.5.8 4.5s-1.4-1.5-2.2-3.9c-.8-2.4-.5-4.8-.5-4.8zm8.2 2s-1.8.8-3.3 2.7c-1.5 1.9-2 4-2 4s1.7-1.2 3.1-3c1.5-1.8 2.2-3.7 2.2-3.7zm-9.3 3.3s1.3 1.7 2.2 4 1.1 4.5 1.1 4.5-1.6-1.4-2.5-3.7c-.9-2.4-.8-4.8-.8-4.8zm8.4 1.3s-1.8 1-3.1 3-1.7 4.2-1.7 4.2 1.6-1.3 2.9-3.3c1.4-2 1.9-3.9 1.9-3.9zm-9 4s1.4 1.6 2.6 3.8c1.1 2.2 1.5 4.3 1.5 4.3s-1.7-1.2-2.8-3.5c-1.2-2.2-1.3-4.6-1.3-4.6zm8.5.6s-1.7 1.1-2.8 3.2c-1.2 2.1-1.3 4.3-1.3 4.3s1.5-1.5 2.6-3.5 1.5-4 1.5-4zm-8.6 4.7s1.6 1.4 2.9 3.6c1.3 2.1 1.9 4.2 1.9 4.2s-1.8-1.1-3.1-3.3c-1.4-2.1-1.7-4.5-1.7-4.5zm8.5-.1s-1.6 1.3-2.6 3.5-.9 4.4-.9 4.4 1.3-1.6 2.3-3.7c.9-2.2 1.2-4.2 1.2-4.2zm-8.2 5.5s1.7 1.3 3.2 3.3 2.2 4 2.2 4.1c0 0-1.9-.9-3.4-3s-2-4.4-2-4.4zm8.4-.8s-1.5 1.4-2.3 3.7-.6 4.5-.6 4.5 1.2-1.7 2-3.9c.9-2.3.9-4.3.9-4.3zM53 152s1.8 1.2 3.4 3.1C58 157 59 159 59 159s-1.9-.8-3.6-2.7c-1.7-2-2.4-4.3-2.4-4.3zm8.4-1.6s-1.3 1.5-1.9 3.8c-.6 2.3-.2 4.5-.2 4.5s1.1-1.8 1.6-4.1c.6-2.1.5-4.1.5-4.2z"/><path class="st2" d="M40.4 126s-.3 2.2.4 4.6c.7 2.5 2.2 4.1 2.2 4.1s0-2.1-.7-4.5c-.8-2.4-1.9-4.2-1.9-4.2zm-3 5.6s1.9 1 3.7 2.7 2.9 3.5 2.9 3.6c0 0-2-.6-3.9-2.3-1.8-1.9-2.7-4.1-2.7-4zm8.2-2.4s-1.2 1.6-1.5 4c-.4 2.4.3 4.5.3 4.5s.9-1.9 1.2-4.2c.3-2.4 0-4.3 0-4.3zm-6.5 7.4s2 .8 3.9 2.3 3.2 3.3 3.2 3.3-2-.4-4-2c-2-1.5-3.1-3.6-3.1-3.6zm8-3s-1 1.7-1.2 4.1c-.2 2.4.7 4.4.7 4.4s.7-1.9.9-4.3c0-2.3-.4-4.2-.4-4.2zm-5.8 7.9s2 .6 4.1 2 3.5 3 3.5 3-2.1-.2-4.2-1.6c-2.2-1.4-3.4-3.4-3.4-3.4zm7.6-3.7s-.9 1.8-.8 4.2c0 2.4 1 4.4 1 4.4s.5-2 .5-4.3c-.1-2.4-.7-4.3-.7-4.3zm-5.1 8.4s2.1.5 4.3 1.7 3.7 2.7 3.7 2.7-2.1-.1-4.3-1.3c-2.3-1.2-3.7-3.1-3.7-3.1zm7.3-4.3s-.7 1.9-.5 4.3c.2 2.4 1.4 4.3 1.4 4.3s.4-2 .1-4.4c-.2-2.4-1-4.2-1-4.2zm-4.4 8.8s2.1.3 4.4 1.3c2.3 1 3.9 2.4 4 2.4 0 0-2.1.1-4.4-.9-2.4-1-4-2.8-4-2.8zm7-5s-.6 1.9-.1 4.3c.4 2.4 1.8 4.2 1.7 4.2 0 0 .2-2.1-.2-4.4-.5-2.3-1.4-4-1.4-4.1zm-3.7 9.2s2.1.1 4.5.9 4.2 2.1 4.2 2.1-2.1.3-4.5-.6c-2.4-.8-4.2-2.4-4.2-2.4zm6.5-5.5s-.4 2 .2 4.3c.6 2.3 2.1 4 2.1 4s0-2.1-.6-4.3c-.6-2.3-1.7-4-1.7-4z"/><path class="st2" d="M26.1 138.7s.8 2 2.7 3.8c1.9 1.8 3.9 2.5 3.9 2.4 0 0-1.1-1.8-2.9-3.5s-3.7-2.7-3.7-2.7zm.2 6.3s2.1-.1 4.6.5c2.4.6 4.3 1.6 4.3 1.6s-2 .5-4.5-.1c-2.5-.5-4.4-2-4.4-2zm5.9-6.1s-.2 2 .7 4.3c.9 2.2 2.5 3.8 2.5 3.7 0 0-.2-2.1-1.1-4.2-.9-2.3-2.1-3.8-2.1-3.8zm-1.9 9.7s2.1-.3 4.6.1c2.5.4 4.4 1.2 4.4 1.2s-2 .7-4.5.3-4.5-1.6-4.5-1.6zm5.4-6.7s0 2 1 4.2c1.1 2.2 2.8 3.5 2.8 3.5s-.4-2-1.4-4.1c-1.1-2.1-2.4-3.6-2.4-3.6zm-1.1 9.8s2.1-.5 4.6-.3 4.5.9 4.5.9-1.9.8-4.4.7c-2.6-.2-4.7-1.3-4.7-1.3zm4.8-7s.1 2 1.4 4.1c1.2 2.1 3.1 3.3 3.1 3.3s-.5-2-1.7-4c-1.3-2.1-2.8-3.4-2.8-3.4zm-.2 9.8s2-.6 4.5-.7c2.5 0 4.6.5 4.6.5s-1.8 1-4.4 1.1c-2.5.1-4.7-.9-4.7-.9zm4.1-7.4s.3 2 1.7 3.9c1.4 2 3.3 3 3.3 3s-.7-1.9-2.1-3.8c-1.3-1.9-2.8-3.1-2.9-3.1zm.7 9.9s2-.8 4.4-1.1c2.5-.3 4.6.1 4.6.1s-1.8 1.1-4.3 1.4c-2.5.3-4.8-.4-4.7-.4zm3.5-7.8s.5 2 2 3.8c1.6 1.8 3.6 2.7 3.6 2.7s-.9-1.9-2.4-3.7c-1.5-1.7-3.2-2.8-3.2-2.8zm1.4 9.8s1.9-1 4.4-1.4c2.5-.5 4.6-.3 4.6-.3s-1.7 1.3-4.2 1.8c-2.5.4-4.8-.1-4.8-.1zm2.9-8.1s.6 1.9 2.4 3.6c1.7 1.7 3.8 2.4 3.8 2.4s-1-1.8-2.7-3.4c-1.7-1.6-3.5-2.6-3.5-2.6z"/><path class="st2" d="M20.1 156.9s1.7 1.4 4.2 2 4.6.2 4.6.2-1.9-1-4.3-1.6c-2.4-.7-4.5-.6-4.5-.6zm3.3 5.4s1.8-1.2 4.2-1.9 4.5-.8 4.5-.8-1.5 1.4-3.9 2.2-4.8.5-4.8.5zm2-8.3s.8 1.8 2.7 3.3c1.9 1.5 4 2 4 2s-1.2-1.7-3-3.1c-1.8-1.5-3.7-2.2-3.7-2.2zm3.3 9.3s1.7-1.3 4-2.2 4.5-1.1 4.5-1.1-1.4 1.6-3.7 2.5c-2.5.9-4.8.8-4.8.8zm1.3-8.4s1 1.8 3 3.1 4.2 1.7 4.2 1.7-1.3-1.6-3.3-2.9c-2-1.3-3.9-1.9-3.9-1.9zm4 9s1.6-1.4 3.8-2.6c2.2-1.1 4.3-1.5 4.3-1.5s-1.2 1.7-3.5 2.8c-2.2 1.2-4.6 1.3-4.6 1.3zm.6-8.5s1.1 1.7 3.2 2.8c2.1 1.2 4.3 1.3 4.3 1.3s-1.5-1.5-3.5-2.6-4-1.5-4-1.5zm4.7 8.7s1.4-1.6 3.6-2.9c2.1-1.3 4.2-1.9 4.2-1.9s-1.1 1.8-3.3 3.1c-2.1 1.4-4.5 1.7-4.5 1.7zm-.1-8.6s1.3 1.6 3.5 2.6 4.4.9 4.4.9-1.6-1.3-3.7-2.3c-2.2-.9-4.2-1.2-4.2-1.2zm5.5 8.3s1.3-1.7 3.3-3.2 4-2.2 4.1-2.2c0 0-.9 1.9-3 3.4s-4.4 2-4.4 2zm-.9-8.5s1.4 1.5 3.7 2.3 4.5.6 4.5.6-1.7-1.2-3.9-2c-2.3-.8-4.3-.9-4.3-.9zM50 163s1.2-1.8 3.1-3.4C55 158 57 157 57 157s-.8 1.9-2.7 3.6c-2.1 1.7-4.3 2.4-4.3 2.4zm-1.6-8.4s1.5 1.3 3.8 1.9c2.3.6 4.5.2 4.5.2s-1.8-1.1-4.1-1.6c-2.2-.5-4.2-.5-4.2-.5zm45.5 2.3s-1.7 1.4-4.2 2-4.6.2-4.6.2 1.9-1 4.3-1.6c2.4-.7 4.5-.6 4.5-.6zm-3.3 5.4s-1.8-1.2-4.2-1.9c-2.4-.7-4.5-.8-4.5-.8s1.5 1.4 3.9 2.2 4.8.5 4.8.5zm-2-8.3s-.8 1.8-2.7 3.3c-1.9 1.5-4 2-4 2s1.2-1.7 3-3.1c1.8-1.5 3.7-2.2 3.7-2.2zm-3.3 9.3s-1.7-1.3-4-2.2-4.5-1.1-4.5-1.1 1.4 1.6 3.7 2.5c2.5.9 4.8.8 4.8.8zm-1.3-8.4s-1 1.8-3 3.1-4.2 1.7-4.2 1.7 1.3-1.6 3.3-2.9c2-1.3 3.9-1.9 3.9-1.9zm-4 9s-1.6-1.4-3.8-2.6c-2.2-1.1-4.3-1.5-4.3-1.5s1.2 1.7 3.5 2.8c2.3 1.2 4.6 1.3 4.6 1.3zm-.6-8.5s-1.1 1.7-3.2 2.8c-2.1 1.2-4.3 1.3-4.3 1.3s1.5-1.5 3.5-2.6c2.1-1.1 4-1.5 4-1.5zm-4.7 8.7s-1.4-1.6-3.6-2.9c-2.1-1.3-4.2-1.9-4.2-1.9s1.1 1.8 3.3 3.1c2.1 1.4 4.5 1.7 4.5 1.7zm.1-8.6s-1.3 1.6-3.5 2.6-4.4.9-4.4.9 1.6-1.3 3.7-2.3c2.2-.9 4.2-1.2 4.2-1.2zm-5.5 8.3s-1.3-1.7-3.3-3.2-4-2.2-4.1-2.2c0 0 .9 1.9 3 3.4s4.5 2 4.4 2zm.9-8.5s-1.4 1.5-3.7 2.3c-2.3.8-4.5.6-4.5.6s1.7-1.2 3.9-2c2.3-.8 4.3-.9 4.3-.9zM64 163s-1.2-1.8-3.1-3.4C59 158 57 157 57 157s.8 1.9 2.7 3.6c2.1 1.7 4.3 2.4 4.3 2.4zm1.6-8.4s-1.5 1.3-3.8 1.9c-2.3.6-4.5.2-4.5.2s1.8-1.1 4.1-1.6c2.2-.5 4.2-.5 4.2-.5z"/><path class="st2" d="M87.9 138.7s-.8 2-2.7 3.8c-1.9 1.8-3.9 2.5-3.9 2.4 0 0 1.1-1.8 2.9-3.5s3.7-2.7 3.7-2.7zm-.2 6.3s-2.1-.1-4.6.5c-2.4.6-4.3 1.6-4.3 1.6s2 .5 4.5-.1c2.5-.5 4.4-2 4.4-2zm-5.9-6.1s.2 2-.7 4.3c-.9 2.2-2.5 3.8-2.5 3.7 0 0 .2-2.1 1.1-4.2.9-2.3 2.1-3.8 2.1-3.8zm1.9 9.7s-2.1-.3-4.6.1c-2.5.4-4.4 1.2-4.4 1.2s2 .7 4.5.3 4.5-1.6 4.5-1.6zm-5.4-6.7s0 2-1 4.2c-1.1 2.2-2.8 3.5-2.8 3.5s.4-2 1.4-4.1c1.1-2.1 2.4-3.6 2.4-3.6zm1.1 9.8s-2.1-.5-4.6-.3-4.5.9-4.5.9 1.9.8 4.4.7c2.6-.2 4.7-1.3 4.7-1.3zm-4.8-7s-.1 2-1.4 4.1c-1.2 2.1-3.1 3.3-3.1 3.3s.5-2 1.7-4c1.3-2.1 2.8-3.4 2.8-3.4zm.2 9.8s-2-.6-4.5-.7c-2.5 0-4.6.5-4.6.5s1.8 1 4.4 1.1 4.7-.9 4.7-.9zm-4.1-7.4s-.3 2-1.7 3.9c-1.4 2-3.3 3-3.3 3s.7-1.9 2.1-3.8c1.3-1.9 2.9-3.1 2.9-3.1zm-.6 9.9s-2-.8-4.4-1.1c-2.5-.3-4.6.1-4.6.1s1.8 1.1 4.3 1.4c2.4.3 4.7-.4 4.7-.4zm-3.6-7.8s-.5 2-2 3.8c-1.6 1.8-3.6 2.7-3.6 2.7s.9-1.9 2.4-3.7c1.6-1.7 3.2-2.8 3.2-2.8zm-1.4 9.8s-1.9-1-4.4-1.4c-2.5-.5-4.6-.3-4.6-.3s1.7 1.3 4.2 1.8c2.5.4 4.8-.1 4.8-.1zm-2.9-8.1s-.6 1.9-2.4 3.6c-1.7 1.7-3.8 2.4-3.8 2.4s1-1.8 2.7-3.4c1.8-1.6 3.5-2.6 3.5-2.6z"/><path class="st2" d="M73.6 126s.3 2.2-.4 4.6c-.7 2.5-2.2 4.1-2.2 4.1s0-2.1.7-4.5c.8-2.4 1.9-4.2 1.9-4.2zm3 5.6s-1.9 1-3.7 2.7c-1.8 1.7-2.9 3.5-2.9 3.6 0 0 2-.6 3.9-2.3 1.8-1.9 2.7-4.1 2.7-4zm-8.2-2.4s1.2 1.6 1.5 4c.4 2.4-.3 4.5-.3 4.5s-.9-1.9-1.2-4.2c-.3-2.4 0-4.3 0-4.3zm6.5 7.4s-2 .8-3.9 2.3-3.2 3.3-3.2 3.3 2-.4 4-2c2-1.5 3.1-3.6 3.1-3.6zm-8-3s1 1.7 1.2 4.1c.2 2.4-.7 4.4-.7 4.4s-.7-1.9-.9-4.3c0-2.3.4-4.2.4-4.2zm5.8 7.9s-2 .6-4.1 2-3.5 3-3.5 3 2.1-.2 4.2-1.6c2.2-1.4 3.5-3.4 3.4-3.4zm-7.6-3.7s.9 1.8.8 4.2c0 2.4-1 4.4-1 4.4s-.5-2-.5-4.3c.1-2.4.7-4.3.7-4.3zm5.1 8.4s-2.1.5-4.3 1.7c-2.2 1.2-3.7 2.7-3.7 2.7s2.1-.1 4.3-1.3c2.3-1.2 3.7-3.1 3.7-3.1zm-7.3-4.3s.7 1.9.5 4.3c-.2 2.4-1.4 4.3-1.4 4.3s-.4-2-.1-4.4c.2-2.4 1-4.2 1-4.2zm4.4 8.8s-2.1.3-4.4 1.3c-2.3 1-3.9 2.4-4 2.4 0 0 2.1.1 4.4-.9 2.4-1 4-2.8 4-2.8zm-6.9-5s.6 1.9.1 4.3c-.4 2.4-1.8 4.2-1.7 4.2 0 0-.2-2.1.2-4.4.4-2.3 1.3-4 1.4-4.1zm3.6 9.2s-2.1.1-4.5.9-4.2 2.1-4.2 2.1 2.1.3 4.5-.6c2.5-.8 4.2-2.4 4.2-2.4zm-6.5-5.5s.4 2-.2 4.3c-.6 2.3-2.1 4-2.1 4s0-2.1.6-4.3c.6-2.3 1.7-4 1.7-4z"/><path class="st0" d="M901 139.1v51.7h7.4v-51.6H901v-.1zm24.9 0v51.7h-17.5v-51.7h17.5z"/><path class="st1" d="M925 190.8v-51.7h74.4v51.7H925z"/><path class="st2" d="M931.7 157.8h7.9v7.6h-7.9v-7.6zm17.7 0h7.9v7.6h-7.9v-7.6zm17.7 0h7.9v7.6h-7.9v-7.6zm17.7 0h7.9v7.6h-7.9v-7.6zm0 14.6h7.9v7.6h-7.9v-7.6zm-52.7 0h7.9v7.6h-7.9v-7.6zm17.3.2h7.9v7.6h-7.9v-7.6zm17.7 0h7.9v7.6h-7.9v-7.6zM931.7 143h7.9v7.6h-7.9V143zm17.7 0h7.9v7.6h-7.9V143zm17.7 0h7.9v7.6h-7.9V143zm17.7 0h7.9v7.6h-7.9V143zm-84 0h16.6v7.6h-16.6V143zm0 29.6h16.6v7.6h-16.6v-7.6zm0-14.8h16.6v7.6h-16.6v-7.6z"/><g id="Tower4"><path class="st0" d="M996.4 122.1l8 10.5v61.1h-8v-71.6z"/><path class="st0" d="M1023.3 132.6v61.1h-18.9v-61.1l-8-10.5h18.9l7.9 10.4.1.1z"/><path class="st3" d="M996.4 122.1l8 10.5h18.9l-.1-.1-7.9-10.4h-18.9z"/><path class="st0" d="M1012 124.4l-2.9 3.8h5.8l-2.9-3.8z"/><path class="st0" d="M1012.4 122.1l7.9 10.5v61.1h-7.9v-71.6z"/><path class="st0" d="M1039.2 132.6v61.1h-18.9v-61.1l-7.9-10.5h18.8l8 10.4v.1z"/><path class="st3" d="M1012.4 122.1l7.9 10.5h18.9v-.1l-8-10.4h-18.8z"/><path class="st1" d="M996.4 122.1l-8 10.5v61.1h16v-61.1l-8-10.5zm16 0l8 10.5v61.1h-16v-61.1l8-10.5z"/><path class="st2" d="M1023.7 134.9h4v5.4h-4v-5.4zm-29.3 0h4v5.4h-4v-5.4zm16 0h4v5.4h-4v-5.4zm0 10.2h4v5.4h-4v-5.4zm0 10.2h4v5.4h-4v-5.4zm0 10.2h4v5.4h-4v-5.4zm0 10.2h4v5.4h-4v-5.4zm0 10.2h4v5.4h-4v-5.4zm-16 0h4v5.4h-4v-5.4zm0-10.2h4v5.4h-4v-5.4zm0-10.2h4v5.4h-4v-5.4zm0-10.2h4v5.4h-4v-5.4zm0-10.2h4v5.4h-4v-5.4zm37.4 40.8h4v5.4h-4v-5.4zm-8.1 0h4v5.4h-4v-5.4zm8.1-10.2h4v5.4h-4v-5.4zm-8.1 0h4v5.4h-4v-5.4zm8.1-10.2h4v5.4h-4v-5.4zm-8.1 0h4v5.4h-4v-5.4zm8.1-10.2h4v5.4h-4v-5.4zm-8.1 0h4v5.4h-4v-5.4zm8.1-10.2h4v5.4h-4v-5.4zm-8.1 0h4v5.4h-4v-5.4zm8.1-10.2h4v5.4h-4v-5.4z"/><path class="st0" d="M988.4 162.3v31.4h-22.5v-26.2h-3.4v-19.9h14.7l11.2 14.7z"/><path class="st1" d="M973.7 162.3v31.4h-22.5v-31.4l11.3-14.7 11.2 14.7z"/><path class="st2" d="M982 165.2h3.9v4.1H982v-4.1zm-5.6 0h3v4.1h-3v-4.1zm0 7.7h3v4.1h-3v-4.1zm0 7.6h3v4.1h-3v-4.1zm0 7.7h3v4.1h-3v-4.1zm8.6-15.3h.9v4.1H982v-4.1h3zm0 7.6h.9v4.1H982v-4.1h3zm0 7.7h.9v4.1H982v-4.1h3zm-30.4 0h3v4.1h-3v-4.1zm0-23h3v4.1h-3v-4.1zm0 7.7h3v4.1h-3v-4.1zm0 7.6h3v4.1h-3v-4.1zm13.1 7.7h3v4.1h-3v-4.1zm0-23h3v4.1h-3v-4.1zm0 7.7h3v4.1h-3v-4.1zm0 7.6h3v4.1h-3v-4.1zm-6.5-22.9h3v4.1h-3v-4.1zm0 7.6h3v4.1h-3v-4.1zm0 7.7h3v4.1h-3v-4.1zm0 7.6h3v4.1h-3v-4.1zm0 7.7h3v4.1h-3v-4.1z"/></g><path class="st0" d="M1275.5 115.1h-7.4v51.6h7.4v-51.6zm-7.4 0v51.7h-17.5v-51.7h17.5z"/><path class="st1" d="M1251.4 166.8v-51.7H1177v51.7h74.4z"/><path class="st2" d="M1236.8 133.8h7.9v7.6h-7.9v-7.6zm-17.7 0h7.9v7.6h-7.9v-7.6zm-17.7 0h7.9v7.6h-7.9v-7.6zm-17.7 0h7.9v7.6h-7.9v-7.6zm0 14.6h7.9v7.6h-7.9v-7.6zm52.8 0h7.9v7.6h-7.9v-7.6zm-17.4.1h7.9v7.6h-7.9v-7.6zm-17.7 0h7.9v7.6h-7.9v-7.6zm35.4-29.5h7.9v7.6h-7.9V119zm-17.7 0h7.9v7.6h-7.9V119zm-17.7 0h7.9v7.6h-7.9V119zm-17.7 0h7.9v7.6h-7.9V119zm92 0v7.6h-16.6V119h16.6zm0 29.5v7.6h-16.6v-7.6h16.6zm0-7.1h-16.6v-7.6h16.6v7.6z"/><path class="st0" d="M1037.1 115.1v51.7h7.4v-51.6h-7.4v-.1zm24.9 0v51.7h-17.5v-51.7h17.5z"/><path class="st1" d="M1061.1 166.8v-51.7h74.4v51.7h-74.4z"/><path class="st2" d="M1067.8 133.8h7.9v7.6h-7.9v-7.6zm17.8 0h7.9v7.6h-7.9v-7.6zm17.7 0h7.9v7.6h-7.9v-7.6zm17.7 0h7.9v7.6h-7.9v-7.6zm0 14.6h7.9v7.6h-7.9v-7.6zm-52.8 0h7.9v7.6h-7.9v-7.6zm17.4.1h7.9v7.6h-7.9v-7.6zm17.7 0h7.9v7.6h-7.9v-7.6zm-35.5-29.5h7.9v7.6h-7.9V119zm17.8 0h7.9v7.6h-7.9V119zm17.7 0h7.9v7.6h-7.9V119zm17.7 0h7.9v7.6h-7.9V119zm-84.1 0h16.6v7.6h-16.6V119zm0 29.5h16.6v7.6h-16.6v-7.6zm0-14.7h16.6v7.6h-16.6v-7.6z"/><path class="st0" d="M1422.6 150.8V99.1h-74.4v51.7h74.4z"/><path class="st2" d="M1408 117.8h7.9v7.6h-7.9v-7.6zm-17.7 0h7.9v7.6h-7.9v-7.6zm-17.7 0h7.9v7.6h-7.9v-7.6zm-17.7 0h7.9v7.6h-7.9v-7.6zm0 14.5h7.9v7.6h-7.9v-7.6zm52.8 0h7.9v7.6h-7.9v-7.6zm-17.4.2h7.9v7.6h-7.9v-7.6zm-17.7 0h7.9v7.6h-7.9v-7.6zM1408 103h7.9v7.6h-7.9V103zm-17.7 0h7.9v7.6h-7.9V103zm-17.7 0h7.9v7.6h-7.9V103zm-17.7 0h7.9v7.6h-7.9V103z"/><path class="st0" d="M1251.3 99.1v51.7h7.4V99.1h-7.4zm24.9 0v51.7h-17.5V99.1h17.5z"/><path class="st1" d="M1275.3 150.8V99.1h74.4v51.7h-74.4z"/><path class="st2" d="M1282 117.8h7.9v7.6h-7.9v-7.6zm17.7 0h7.9v7.6h-7.9v-7.6zm17.7 0h7.9v7.6h-7.9v-7.6zm17.7 0h7.9v7.6h-7.9v-7.6zm0 14.5h7.9v7.6h-7.9v-7.6zm-52.7 0h7.9v7.6h-7.9v-7.6zm17.3.2h7.9v7.6h-7.9v-7.6zm17.7 0h7.9v7.6h-7.9v-7.6zM1282 103h7.9v7.6h-7.9V103zm17.7 0h7.9v7.6h-7.9V103zm17.7 0h7.9v7.6h-7.9V103zm17.7 0h7.9v7.6h-7.9V103zm-84 0h16.6v7.6h-16.6V103zm0 29.5h16.6v7.6h-16.6v-7.6zm0-14.7h16.6v7.6h-16.6v-7.6z"/><path class="st1" d="M29.1 177.5c-.1-.2-.3-.5-.4-.7l-.2-.3c-.3-.5-.5-.9-.8-1.4l-.2-.3c-.6-1.1-1.1-2.1-1.7-3.2l-.1-.2c-.2-.5-.5-.9-.7-1.4v-.1c-6.7-13.1-11.9-26.9-15.5-41.1-.1-.5-.2-1-.4-1.5v-.1c-.3-1.2-.6-2.3-.8-3.5l-.1-.4-.3-1.5-.1-.6c-.2-.7-.3-1.5-.5-2.2 0-.2-.1-.5-.1-.7l-.1-.5-.3-1.5-.1-.4-.6-3.6v-.2c-.1-.5-.2-1-.2-1.5v-.1C3.6 96 3 81.3 4.1 66.7v-.1c0-.5.1-1 .1-1.5v-.2c.1-1.2.2-2.3.3-3.5v-.5c.1-.7.2-1.5.2-2.2l.2-.7 8.7 1-.1.7c-.2 1.7-.4 3.4-.5 5.1v.4c-.1.9-.1 1.8-.2 2.7v.5c0 .5-.1 1-.1 1.5v.7c0 .9-.1 1.8-.1 2.7v13.8c0 .9.1 1.8.1 2.7v.7c0 .5 0 .9.1 1.4v.7c.1.9.1 1.8.2 2.7l.1.7c0 .5.1.9.1 1.4l.1.7.3 2.7.1.7c.1.5.1.9.2 1.4l.1.7.3 2.7.1.7c.1.5.1.9.2 1.4l.1.6c.1.9.3 1.8.4 2.7l.1.5.3 1.8.1.4c.2.9.3 1.8.5 2.7v.1c.1.5.2.9.3 1.4.1.6.2 1.1.3 1.7.2.7.3 1.4.5 2.1l.1.2c.1.6.3 1.3.4 1.9l.1.5c.2.9.4 1.8.7 2.6l.2.6c.1.5.2.9.4 1.4l.2.6c.2.9.5 1.7.7 2.6l.2.6c.1.4.3.9.4 1.3l.2.6c.3.9.5 1.7.8 2.6l.2.6c.1.4.3.9.4 1.3l.2.6c.3.9.6 1.7.9 2.6l.2.6c.2.4.3.9.5 1.3l.2.6c.3.9.6 1.7 1 2.6l.2.6c.2.4.3.9.5 1.3l.2.6c.3.8.7 1.7 1 2.5l.3.6c.2.4.4.9.6 1.3l.3.6c.4.8.7 1.7 1.1 2.5l.3.6c.2.4.4.9.6 1.3l.3.6c.4.8.8 1.6 1.2 2.5l.3.6c.2.4.4.9.7 1.3l.3.5c.4.8.8 1.6 1.3 2.4l.2.3c.4.7.7 1.4 1.1 2v.1c.4.8.8 1.5 1.3 2.3.1.2.2.3.3.5l.1.2-7 4-.1-.2-1.2.4zm-.2-3c.2.4.5.9.7 1.3l5.3-3c-.2-.4-.5-.8-.7-1.3l-5.3 3zm-1.4-2.5c.2.5.5.9.7 1.4l5.4-2.9c-.2-.4-.5-.9-.7-1.3l-5.4 2.8zm-1.3-2.5c.2.5.5.9.7 1.4l5.4-2.8c-.2-.4-.4-.9-.7-1.3l-5.4 2.7zm-1.3-2.6c.2.5.5.9.7 1.4l5.4-2.8c-.2-.4-.4-.9-.6-1.3l-5.5 2.7zm-1.2-2.5c.2.5.4.9.7 1.4l5.5-2.7c-.2-.4-.4-.9-.6-1.3l-5.6 2.6zm-1.2-2.6c.2.5.4.9.6 1.4l5.5-2.6c-.2-.4-.4-.9-.6-1.3l-5.5 2.5zm-1.2-2.6c.2.5.4.9.6 1.4l5.5-2.5c-.2-.4-.4-.9-.6-1.3l-5.5 2.4zm-1.1-2.6c.2.5.4.9.6 1.4l5.6-2.4c-.2-.4-.4-.9-.6-1.3l-5.6 2.3zm-1.1-2.6c.2.5.4.9.6 1.4l5.6-2.3c-.2-.4-.4-.9-.5-1.3l-5.7 2.2zm-1-2.7c.2.5.4.9.6 1.4l5.7-2.3c-.2-.4-.4-.9-.5-1.3l-5.8 2.2zm-1-2.6c.2.5.4.9.5 1.4l5.7-2.2c-.2-.4-.3-.9-.5-1.3l-5.7 2.1zm-1-2.7c.2.5.3.9.5 1.4l5.7-2.1c-.2-.4-.3-.9-.5-1.3l-5.7 2zm-.9-2.7c.2.5.3 1 .5 1.4l5.7-2c-.2-.4-.3-.9-.5-1.3l-5.7 1.9zm-.9-2.7c.2.5.3 1 .5 1.4l5.8-1.9c-.1-.4-.3-.9-.4-1.4l-5.9 1.9zm-.9-2.7c.1.5.3 1 .4 1.4l5.8-1.9c-.1-.5-.3-.9-.4-1.4l-5.8 1.9zm-.8-2.7c.1.5.3 1 .4 1.4l5.8-1.8c-.1-.5-.3-.9-.4-1.4l-5.8 1.8zm-.7-2.7c.1.5.3 1 .4 1.5l5.9-1.7c-.1-.5-.3-.9-.4-1.4l-5.9 1.6zm-.8-2.7c.1.5.3 1 .4 1.5l5.9-1.6c-.1-.5-.2-.9-.4-1.4l-5.9 1.5zm-.7-2.8c.1.5.2 1 .4 1.5l5.9-1.5c-.1-.5-.2-.9-.3-1.4l-6 1.4zm-.6-2.7l.3 1.5 5.9-1.4c-.1-.5-.2-.9-.3-1.4l-5.9 1.3zm-.6-2.8l.3 1.5 5.9-1.3c-.1-.5-.2-.9-.3-1.4l-5.9 1.2zm-.6-2.8c.1.3.1.6.2 1 0 .2.1.3.1.5l6-1.3c0-.2-.1-.3-.1-.5-.1-.3-.1-.6-.2-.9l-6 1.2zm-.2-1.3l6-1.2c-.1-.5-.2-.9-.3-1.4l-6 1.1c.1.6.2 1.1.3 1.5zm-.6-2.7l6-1.1c-.1-.5-.2-.9-.2-1.4l-6 1c.1.5.2 1 .2 1.5zm-.4-2.8l6-1c-.1-.5-.1-.9-.2-1.4l-6 .9c0 .5.1 1 .2 1.5zm-.5-2.8l6-.9c-.1-.5-.1-.9-.2-1.4l-6 .8c.1.5.2 1 .2 1.5zm-.4-2.8l6-.8c-.1-.5-.1-.9-.2-1.4l-6 .7c.1.5.2 1 .2 1.5zm-.3-2.8l6-.7c-.1-.5-.1-.9-.2-1.4l-6 .6c.1.5.1 1 .2 1.5zm-.3-2.8l6.1-.6c0-.5-.1-.9-.1-1.4l-6.1.6c0 .4 0 .9.1 1.4zm-.3-2.9l6.1-.6c0-.5-.1-.9-.1-1.4l-6.1.5c0 .5.1 1 .1 1.5zM5.4 95l6.1-.5c0-.5-.1-.9-.1-1.4l-6.1.4c0 .5.1 1 .1 1.5zm-.2-2.8l6.1-.4c0-.5-.1-.9-.1-1.4l-6.1.3c0 .5.1 1 .1 1.5zm-.1-2.8l6.1-.3c0-.5 0-.9-.1-1.4l-6.1.2c0 .5 0 1 .1 1.5zM5 86.5l6.1-.2v-1.4l-6.2.1c0 .5 0 1 .1 1.5zm-.1-2.8l6.1-.1v-1.4H4.9v1.5zm0-2.8H11v-1.4l-6.1-.1v1.5zm0-2.9l6.1.1v-1.4l-6.1-.2V78zm0-2.8l6.1.2V74l-6-.4c0 .6 0 1.1-.1 1.6zm.2-2.9l6.1.2c0-.5 0-1 .1-1.4l-6.1-.3c-.1.5-.1 1-.1 1.5zm.1-2.8l6.1.3c0-.5.1-1 .1-1.4L5.3 68c0 .5-.1 1-.1 1.5zm.2-2.9l6.1.4c0-.5.1-1 .1-1.4l-6.1-.5c0 .5-.1 1-.1 1.5zm.2-2.8l6.1.5c0-.5.1-1 .1-1.4l-6.1-.6c0 .5 0 1-.1 1.5zm.3-2.9l6.1.6c0-.5.1-1 .2-1.4L6 59.4c0 .5-.1 1-.1 1.5z"/><path class="st8" d="M-23 41.3c-2.8-2.2-5.5-4.5-8-7-2.6 0-5.3-.2-7.9-.4.2 2.6.9 5.2 2.1 7.9 4.7.2 9.3 0 13.8-.5zm11 5.7c-1.6-5.5-2.6-11-2.9-16.4-2.2-1.1-4.5-2.1-6.9-2.8-.1 4.4.3 8.9 1 13.5 2.9 2.1 5.8 4 8.8 5.7zm-19.5-21.2c-1.9-.2-3.8-.3-5.7-.2 1.7 2.2 3.6 4.2 5.5 6.2 0-2.1 0-4.1.2-6zm9.1 14.3c-.6-4.3-.8-8.6-.7-12.7-2.3-.6-4.6-1.1-7-1.5-.2 2.4-.2 4.8-.2 7.3 2.5 2.5 5.1 4.8 7.9 6.9zM-.6 52.3C-3 47.1-4.7 41.9-5.9 36.6c-1.4-1.2-2.9-2.4-4.5-3.4-1-.7-2.1-1.3-3.1-1.9.5 5.4 1.6 11 3.3 16.6 3.1 1.7 6.3 3.2 9.6 4.4zm1.7 2.1C-4 56.7-9.5 58.6-15.4 60c8.6 2.3 17 .6 22.4-3.7-2-.6-3.9-1.2-5.9-1.9zM-29 52.5c1.2 1.1 2.5 2.1 3.9 3 2.2 1.4 4.5 2.6 6.8 3.5 6.2-1.2 12-3 17.5-5.4-3.3-1.3-6.6-2.7-9.7-4.4-5.8 1.8-12 2.9-18.5 3.3zm16.6-4.2c-3.1-1.7-6.1-3.6-8.9-5.7-4.8.7-9.7.9-14.8.8 1.4 2.7 3.3 5.4 5.6 7.8 6.3-.4 12.4-1.4 18.1-2.9zm-26-22.1c-.5 2-.7 4-.7 6.2 2.2.2 4.4.4 6.5.5-2-2.2-3.9-4.4-5.8-6.7zM1.3 53.1c1.9.7 3.9 1.3 5.9 1.9C4.7 48.6.7 42.9-4.1 38.2c1.2 5 3 9.9 5.4 14.9zm28.8-21c-1.8 3-3.8 6-6 8.8C30 40 36 38.5 41.9 36.3c1.2-3.1 1.9-6.3 2.1-9.3-4.6 2.1-9.2 3.8-13.9 5.1zm3.7 16.3c1.8-1.7 3.5-3.7 4.9-5.9.9-1.4 1.7-2.8 2.4-4.3-6.1 2.1-12.3 3.5-18.3 4.2-2.2 2.7-4.6 5.4-7.2 7.8 5.9.1 12-.5 18.2-1.8zm-19.7 3.3c-1.5 1.4-3.1 2.7-4.7 4 6.7 1.8 15 .1 22.1-5.4-6 1.1-11.8 1.6-17.4 1.4zm-1.5-16.9c-2.6 6.2-4 13-3.9 19.8 1.6-1.3 3.2-2.6 4.7-4 .3-5.5 0-10.7-.8-15.8zM34.7 20c-.9-2.3-1.9-4.5-3-6.6-2.1 1.2-4 2.6-5.8 4.1 1.7 3.8 3.2 7.8 4.3 12 1.7-3.2 3.2-6.3 4.5-9.5zM23.2 39.8c2.1-2.8 4.1-5.6 5.9-8.6-1.1-4.5-2.6-8.8-4.4-12.9-1.9 1.6-3.6 3.4-5.3 5.3 1.9 5.1 3.2 10.5 3.8 16.2zM22 41.4c-.6-5.8-1.7-11.4-3.5-16.6-.7.9-1.4 1.9-2.1 2.9-1.1 1.6-2 3.2-2.8 4.9 1 5.2 1.5 10.8 1.3 16.5 2.5-2.4 4.9-5 7.1-7.7zm9.2-11.2c4.3-1.3 8.7-2.9 13-5 0-2.9-.4-5.6-1.2-8-2.4 1.3-4.7 2.5-7.1 3.5-1.4 3.3-3 6.5-4.7 9.5zm6.9-20c-1.8.7-3.5 1.5-5.2 2.5.9 1.8 1.8 3.6 2.6 5.4 1-2.6 1.9-5.3 2.6-7.9zm4.4 5.6c-.8-2-1.8-3.8-3-5.4-.8 2.9-1.7 5.7-2.8 8.4 1.9-1 3.8-2 5.8-3z"/><path class="st8" d="M-14 66.4c5.9-1 11.7-1.5 17.3-1.3 1.5-1.4 3.1-2.7 4.7-4-6.6-1.8-15-.2-22 5.3zm1.3 18.4c1.8-3 3.8-6 6-8.8-5.9.8-11.8 2.3-17.8 4.5-1.2 3.1-1.9 6.3-2.1 9.3 4.6-2.1 9.2-3.8 13.9-5zm-8 21.9c1.8-.7 3.5-1.5 5.2-2.5-.9-1.8-1.8-3.6-2.6-5.4-1 2.6-1.8 5.2-2.6 7.9zm6.9-20.1c-4.3 1.3-8.7 2.9-13 5 0 2.9.4 5.6 1.2 8 2.4-1.3 4.7-2.5 7.1-3.5 1.4-3.3 3-6.4 4.7-9.5zM4.8 82c2.6-6.2 4-13 3.9-19.8-1.6 1.3-3.2 2.6-4.7 4-.3 5.5 0 10.8.8 15.8zm-29.9 19.1c.8 2 1.8 3.8 3 5.4.8-2.9 1.7-5.7 2.8-8.4-1.9.9-3.8 1.9-5.8 3zM-5.8 77c-2.1 2.8-4.1 5.6-5.9 8.6 1.1 4.5 2.6 8.8 4.4 12.9 1.9-1.6 3.6-3.4 5.3-5.3-1.9-5-3.2-10.5-3.8-16.2zm-11.5 19.9c.9 2.3 1.9 4.5 3 6.6 2.1-1.2 4-2.6 5.8-4.1-1.7-3.8-3.2-7.8-4.3-12-1.7 3.1-3.2 6.2-4.5 9.5zm.9-28.5c-1.8 1.7-3.5 3.7-4.9 5.9-.9 1.4-1.7 2.8-2.4 4.3 6.1-2.1 12.3-3.5 18.3-4.2 2.2-2.7 4.6-5.4 7.2-7.8-5.9-.1-12 .6-18.2 1.8zm11.8 7C-4 81.2-2.8 86.8-1.1 92c.7-.9 1.4-1.9 2.1-2.9 1.1-1.6 2-3.2 2.8-4.9-1-5.2-1.5-10.8-1.3-16.5-2.5 2.4-4.9 5-7.1 7.7zm34.4-6.8c3.1 1.7 6.1 3.6 8.9 5.7 4.8-.7 9.7-.9 14.8-.8-1.4-2.7-3.3-5.4-5.6-7.8-6.3.4-12.4 1.3-18.1 2.9zm-.4 1.2c1.6 5.5 2.6 11 2.9 16.4 2.2 1.1 4.5 2.1 6.9 2.8.1-4.4-.3-8.9-1-13.5-2.9-2.1-5.8-4-8.8-5.7zm10.4 6.9c.6 4.3.8 8.6.7 12.7 2.3.6 4.6 1.1 7 1.5.2-2.4.2-4.8.2-7.3-2.5-2.5-5.1-4.7-7.9-6.9zm16 13.9c.5-2 .7-4 .7-6.2-2.2-.2-4.4-.4-6.5-.5 2 2.2 3.9 4.4 5.8 6.7zm-6.9.5c1.9.2 3.8.3 5.7.2-1.7-2.2-3.6-4.2-5.5-6.2.1 2 0 4-.2 6zm5.4-16c-4.8-.2-9.4-.1-13.9.5 2.8 2.2 5.5 4.5 8 7 2.6 0 5.3.2 7.9.4-.2-2.7-.9-5.3-2-7.9zM32.8 56.9c-8.6-2.3-17-.6-22.4 3.7 2 .6 4 1.2 5.9 1.9 5.1-2.4 10.6-4.3 16.5-5.6zm-22.6 5c2.5 6.3 6.5 12.1 11.3 16.7-1.2-4.9-3-9.9-5.4-14.8-2-.7-3.9-1.3-5.9-1.9zm7.8 2.6c2.4 5.2 4.1 10.5 5.2 15.7 1.4 1.2 2.9 2.4 4.5 3.4 1 .7 2.1 1.3 3.1 1.9-.5-5.4-1.6-11-3.3-16.6-3-1.7-6.2-3.1-9.5-4.4zm28.4-.2c-1.2-1.1-2.5-2.1-3.9-3-2.2-1.4-4.5-2.6-6.8-3.5-6.2 1.2-12 3-17.5 5.4 3.3 1.3 6.6 2.7 9.7 4.4 5.9-1.7 12-2.9 18.5-3.3z"/><path class="st1" d="M50.2 176.2l-.1.2-6.8-4.4.1-.2c.1-.2.2-.3.3-.5.5-.7.9-1.5 1.4-2.2v-.1c.4-.7.8-1.3 1.2-2l.2-.3c.5-.8.9-1.6 1.4-2.4l.3-.5c.2-.4.5-.8.7-1.3l.3-.6c.5-.8.9-1.6 1.3-2.4l.3-.6c.2-.4.4-.8.7-1.2l.3-.6c.4-.8.8-1.6 1.3-2.4l.3-.6c.2-.4.4-.8.6-1.3l.3-.6c.4-.8.8-1.6 1.2-2.5l.3-.6c.2-.4.4-.9.6-1.3l.3-.6c.4-.8.7-1.7 1.1-2.5l.3-.6c.2-.4.4-.9.6-1.3l.3-.6c.4-.8.7-1.7 1-2.5l.2-.6c.2-.4.3-.9.5-1.3l.2-.6c.3-.8.7-1.7 1-2.5l.2-.6c.2-.4.3-.9.5-1.3l.2-.6c.3-.9.6-1.7.9-2.6l.2-.6c.2-.5.3-.9.5-1.4l.2-.6c.3-.9.6-1.7.8-2.6l.1-.5c.2-.6.4-1.3.6-1.9l.1-.2.6-2.1c.2-.5.3-1.1.4-1.6s.2-.9.4-1.4v-.1c.2-.9.4-1.8.7-2.6l.1-.4c.1-.6.3-1.2.4-1.8l.1-.5.6-2.7.1-.6c.1-.5.2-.9.3-1.4l.1-.6c.2-.9.3-1.8.5-2.7l.1-.6c.1-.5.2-.9.2-1.4l.1-.7c.2-.9.3-1.8.4-2.7l.1-.7c.1-.5.1-.9.2-1.4l.1-.7c.1-.9.2-1.8.4-2.7l.1-.7c.1-.5.1-.9.2-1.4l.1-.7.3-2.7.1-.7c0-.5.1-.9.1-1.4l.1-.7c.1-.9.1-1.8.2-2.7v-.7c0-.5.1-.9.1-1.4v-.7c0-.9.1-1.8.1-2.7V64.6c0-1.7-.1-3.4-.2-5.1v-.7l8.7-.4v.7c0 .7.1 1.5.1 2.2v.5c0 1.2.1 2.4.1 3.5v1.9c.2 14.7-1.3 29.3-4.5 43.6v.1l-.3 1.5v.2c-.3 1.2-.5 2.3-.8 3.5l-.1.4c-.1.5-.2 1-.4 1.5l-.1.5c-.1.2-.1.5-.2.7-.2.7-.4 1.5-.6 2.2l-.2.6c-.1.5-.3 1-.4 1.5l-.1.4c-.3 1.2-.7 2.3-1 3.5v.1c-.2.5-.3 1-.5 1.5-4.5 14-10.5 27.4-18 40.1l-.1.1c-.3.4-.5.9-.8 1.3l-.1.2c-.6 1-1.3 2.1-1.9 3.1l-.2.3c-.3.4-.6.9-.8 1.3l-.2.3c-.1.2-.3.5-.4.7l-.3-.2zm-4.3-5.8c-.3.4-.5.8-.8 1.2l5.1 3.3c.3-.4.6-.9.8-1.3l-5.1-3.2zm1.5-2.4c-.3.4-.5.8-.8 1.2l5.2 3.2c.3-.4.5-.9.8-1.3l-5.2-3.1zm1.4-2.3c-.2.4-.5.8-.7 1.2l5.2 3.2c.3-.4.5-.9.8-1.3l-5.3-3.1zm1.4-2.4c-.2.4-.5.8-.7 1.2l5.3 3.1c.3-.4.5-.9.8-1.3l-5.4-3zm1.3-2.4c-.2.4-.5.8-.7 1.3l5.3 3c.2-.4.5-.9.7-1.3l-5.3-3zm1.3-2.5c-.2.4-.5.8-.7 1.3l5.3 2.9c.2-.4.5-.9.7-1.3l-5.3-2.9zm1.3-2.4c-.2.4-.4.8-.7 1.3l5.4 2.8c.2-.4.5-.9.7-1.4l-5.4-2.7zm1.3-2.5c-.2.4-.4.9-.6 1.3l5.4 2.8c.2-.5.5-.9.7-1.4l-5.5-2.7zm1.2-2.4c-.2.4-.4.9-.6 1.3l5.5 2.7c.2-.5.4-.9.7-1.4l-5.6-2.6zm1.1-2.5c-.2.4-.4.9-.6 1.3l5.5 2.6c.2-.5.4-.9.6-1.4l-5.5-2.5zm1.2-2.5c-.2.4-.4.9-.6 1.3l5.5 2.5c.2-.5.4-.9.6-1.4l-5.5-2.4zm1.1-2.5c-.2.4-.4.9-.6 1.3l5.6 2.4c.2-.5.4-.9.6-1.4l-5.6-2.3zm1-2.6c-.2.4-.4.9-.5 1.3l5.6 2.4c.2-.5.4-.9.6-1.4L61 141zm1-2.5c-.2.4-.3.9-.5 1.3l5.6 2.3c.2-.5.4-.9.6-1.4l-5.7-2.2zm1-2.6c-.2.4-.3.9-.5 1.3l5.7 2.2c.2-.5.4-.9.5-1.4l-5.7-2.1zm1-2.5c-.2.4-.3.9-.5 1.3l5.7 2.1c.2-.5.3-.9.5-1.4l-5.7-2zm.9-2.6c-.2.4-.3.9-.5 1.3l5.7 2c.2-.5.3-.9.5-1.4l-5.7-1.9zm.9-2.6c-.1.5-.3.9-.4 1.3l5.8 2c.2-.5.3-1 .5-1.4l-5.9-1.9zm.8-2.6c-.1.5-.3.9-.4 1.4l5.8 1.9c.2-.5.3-1 .5-1.4l-5.9-1.9zm.8-2.7c-.1.5-.3.9-.4 1.4l5.8 1.8c.1-.5.3-1 .4-1.4l-5.8-1.8zm.7-2.6c-.1.5-.3.9-.4 1.4l5.8 1.7c.1-.5.3-1 .4-1.4l-5.8-1.7zm.8-2.6c-.1.3-.2.6-.2.9 0 .2-.1.3-.1.5l5.9 1.6c0-.2.1-.3.1-.5.1-.3.2-.6.3-1l-6-1.5zm6.5-1.2l-5.9-1.4c-.1.5-.2.9-.3 1.4l5.9 1.5c.1-.6.2-1.1.3-1.5zm.7-2.8l-5.9-1.4c-.1.5-.2.9-.3 1.4l5.9 1.4c.1-.4.2-.9.3-1.4zm.6-2.7l-6-1.3c-.1.5-.2.9-.3 1.4l5.9 1.4c.2-.6.3-1.1.4-1.5zm.6-2.8l-6-1.2c-.1.5-.2.9-.3 1.4l6 1.3.3-1.5zm.6-2.8l-6-1.1c-.1.5-.2.9-.3 1.4l6 1.2.3-1.5zm.5-2.8l-6-1c-.1.5-.2.9-.2 1.4l6 1.1c0-.5.1-1 .2-1.5zm.4-2.8l-6-.9c-.1.5-.1.9-.2 1.4l6 1c.1-.5.1-1 .2-1.5zm.4-2.8l-6-.8c-.1.5-.1.9-.2 1.4l6 .9c.1-.5.2-1 .2-1.5zm.4-2.8l-6-.8c-.1.5-.1.9-.2 1.4l6 .8c.1-.4.2-.9.2-1.4zm.4-2.8l-6.1-.7c-.1.5-.1.9-.2 1.4l6 .8.3-1.5zm.3-2.8l-6.1-.6c0 .5-.1.9-.1 1.4l6.1.7c0-.5 0-1 .1-1.5zm.2-2.8l-6.1-.5c0 .5-.1.9-.1 1.4l6.1.6c0-.5.1-1 .1-1.5zm.2-2.9l-6.1-.4c0 .5-.1 1-.1 1.4l6.1.5c.1-.5.1-1 .1-1.5zm.2-2.8l-6.1-.3c0 .5-.1 1-.1 1.4l6.1.4c0-.5.1-1 .1-1.5zm.1-2.8l-6.1-.3c0 .5 0 1-.1 1.4l6.1.3c.1-.4.1-.9.1-1.4zm.1-2.9l-6.1-.1v1.4l6.1.2v-1.5zm.1-2.8h-6.1V73l6.1.1v-1.5zm0-2.9h-6.1v1.4h6.1v-1.4zm0-2.8l-6.1.1v1.4h6.1v-1.5zm-.1-2.9l-6.1.2v1.4l6.1-.1V63zm-.1-2.9l-6.1.3c0 .5 0 1 .1 1.4l6.1-.2c-.1-.4-.1-.9-.1-1.5z"/><path class="st8" d="M111.1 43.8c2.9-2 5.8-4.1 8.4-6.4 2.6.1 5.3.2 7.9.1-.4 2.6-1.3 5.2-2.5 7.7-4.8-.1-9.4-.6-13.8-1.4zm-11.4 5c1.9-5.4 3.2-10.8 3.9-16.2 2.3-1 4.7-1.8 7.1-2.4-.2 4.4-.8 8.9-1.9 13.4-2.9 2-6 3.7-9.1 5.2zm20.8-19.9c1.9-.1 3.8-.1 5.7.1-1.9 2.1-3.8 4-5.9 5.9.2-2.1.2-4.1.2-6zm-10 13.7c.9-4.3 1.4-8.5 1.5-12.6 2.3-.5 4.7-.9 7-1 0 2.4-.1 4.8-.3 7.3-2.5 2.2-5.3 4.4-8.2 6.3zM88 53.5c2.7-5.1 4.8-10.2 6.2-15.3C95.7 37 97.3 36 99 35c1.1-.6 2.1-1.2 3.2-1.7-.8 5.4-2.2 10.9-4.3 16.4-3.2 1.5-6.5 2.7-9.9 3.8zm-1.8 1.9c5 2.6 10.4 4.9 16.1 6.6-8.8 1.8-17-.5-22.1-5.1 2-.4 4-.9 6-1.5zm30.2 0c-1.3 1-2.6 1.9-4.1 2.8-2.3 1.3-4.6 2.3-7 3-6.1-1.6-11.8-3.8-17.1-6.4 3.4-1.1 6.7-2.3 9.9-3.8 5.7 2.1 11.8 3.6 18.3 4.4zM100 50.1c3.2-1.5 6.3-3.3 9.3-5.2 4.7 1 9.7 1.5 14.8 1.7-1.5 2.6-3.6 5.2-6.1 7.4-6.3-.6-12.3-2-18-3.9zm27.3-20.4c.4 2 .5 4.1.3 6.2-2.2.1-4.4.1-6.6.1 2.3-2 4.4-4.1 6.3-6.3zM86.1 54.1c-2 .6-4 1.1-6 1.5 2.9-6.2 7.2-11.6 12.3-16-1.5 4.9-3.6 9.7-6.3 14.5zM58.6 31.4c1.6 3.1 3.4 6.2 5.4 9.1-5.8-1.2-11.7-3.1-17.5-5.6-1-3.2-1.5-6.4-1.6-9.4 4.6 2.3 9.2 4.3 13.7 5.9zm-4.7 16c-1.7-1.8-3.2-3.9-4.5-6.2-.8-1.4-1.5-2.9-2.1-4.4 6 2.5 12 4.3 18 5.3 2.1 2.9 4.3 5.6 6.7 8.3-5.9-.3-12-1.3-18.1-3zM73.4 52c1.4 1.5 2.9 2.9 4.5 4.3-6.8 1.4-15-.8-21.7-6.7C62 51 67.8 51.8 73.4 52zm2.5-16.8c2.2 6.3 3.2 13.2 2.7 20-1.5-1.4-3-2.8-4.4-4.3 0-5.5.6-10.7 1.7-15.7zM54.8 19c1.1-2.2 2.2-4.4 3.4-6.4 2 1.3 3.8 2.8 5.6 4.4-1.9 3.7-3.6 7.6-5 11.7-1.6-3.2-2.9-6.4-4-9.7zM65 39.5c-2-2.9-3.7-5.9-5.3-9 1.4-4.4 3.1-8.6 5.1-12.6 1.8 1.7 3.4 3.6 4.9 5.6-2.1 5-3.7 10.4-4.7 16zm1.2 1.7c.9-5.8 2.4-11.3 4.5-16.4.7 1 1.3 2 1.9 3.1 1 1.7 1.8 3.4 2.5 5.1-1.3 5.2-2.1 10.6-2.3 16.4-2.4-2.6-4.6-5.4-6.6-8.2zm-8.5-11.7c-4.2-1.5-8.5-3.5-12.6-5.8.2-2.8.7-5.5 1.7-8 2.3 1.4 4.6 2.8 6.9 3.9 1.1 3.4 2.4 6.7 4 9.9zM52 9c1.7.8 3.4 1.7 5 2.8-1 1.7-2 3.4-2.9 5.2-.8-2.6-1.5-5.3-2.1-8zm-4.7 5.3c.9-2 2-3.7 3.4-5.2.6 2.9 1.4 5.8 2.3 8.6-2-1.1-3.8-2.2-5.7-3.4z"/><path class="st8" d="M100.6 68.4C94.7 67 89 66.2 83.3 66c-1.4-1.5-2.9-2.9-4.5-4.3 6.8-1.4 15.1.7 21.8 6.7zm-2.5 18.2c-1.6-3.1-3.4-6.2-5.4-9.1 5.8 1.2 11.7 3.1 17.5 5.6 1 3.2 1.5 6.4 1.6 9.4-4.6-2.4-9.1-4.4-13.7-5.9zm6.6 22.3c-1.7-.8-3.4-1.7-5-2.8 1-1.7 2-3.4 2.9-5.2.8 2.7 1.6 5.3 2.1 8zm-5.6-20.4c4.2 1.5 8.5 3.5 12.6 5.8-.2 2.8-.7 5.5-1.7 8-2.3-1.4-4.6-2.8-6.9-3.9-1.1-3.5-2.5-6.8-4-9.9zm-18.3-5.7c-2.2-6.3-3.2-13.2-2.7-20 1.5 1.4 3 2.8 4.4 4.3 0 5.4-.6 10.7-1.7 15.7zm28.6 20.8c-.9 2-2 3.7-3.4 5.2-.6-2.9-1.4-5.8-2.3-8.6 2 1.1 3.9 2.2 5.7 3.4zM91.7 78.4c2 2.9 3.7 5.9 5.3 9-1.4 4.4-3.1 8.6-5.1 12.6-1.8-1.7-3.4-3.6-4.9-5.6 2.1-5 3.7-10.3 4.7-16zM102 99c-1.1 2.2-2.2 4.4-3.4 6.4-2-1.3-3.8-2.8-5.6-4.4 1.9-3.7 3.6-7.6 5-11.7 1.5 3.1 2.8 6.3 4 9.7zm.8-28.5c1.7 1.8 3.2 3.9 4.5 6.2.8 1.4 1.5 2.9 2.1 4.4-6-2.5-12-4.3-18-5.3-2.1-2.9-4.3-5.6-6.7-8.3 6 .4 12 1.4 18.1 3zm-12.2 6.2c-.9 5.8-2.4 11.3-4.5 16.4-.7-1-1.3-2-1.9-3.1-1-1.7-1.8-3.4-2.5-5.1 1.3-5.2 2.1-10.6 2.3-16.4 2.3 2.7 4.5 5.4 6.6 8.2z"/><path class="st9" d="M54.2 70.5l1.8-.9c.2-.6.4-1.2.7-1.8-.6.3-1.3.6-1.9.9l-.6 1.8zm11.4-5c.7-.2 1.3-.5 2-.7.3-.6.6-1.1.9-1.7-.7.2-1.3.4-2 .7-.3.6-.6 1.1-.9 1.7z"/><path class="st3" d="M38.7 63.9c5.4.6 10.6 1.7 15.5 3.1.2-.1.3-.2.5-.2-5.6-1.9-11.6-3.2-18-3.9-2.5 2.2-4.5 4.8-6.1 7.4.9 0 1.7.1 2.6.1 1.5-2.3 3.3-4.5 5.5-6.5zm15.5 6.6l.6-1.8c-2.5 1.3-5 2.7-7.4 4.2-.3-.1-.6-.1-.9-.2-.2.1-.4.3-.7.4l-.6 2.7c.3-.2.6-.4.8-.6-.8 3.8-1.2 7.5-1.4 11.1.5-.1.9-.3 1.4-.4.3-3.9.8-7.9 1.7-11.9 2.3-1.1 4.4-2.3 6.5-3.5zm-10.5 6.6c.1-.6.2-1.2.3-1.9-2.4 1.7-4.6 3.4-6.8 5.3h-1.1c-.1.1-.2.1-.2.2-.1 1-.1 2-.2 3l.6-.6c-.1 1.6-.1 3.2-.1 4.9.5 0 1-.1 1.4-.1 0-2 .1-4 .2-6.1 2-1.7 3.9-3.2 5.9-4.7zM29.1 82c1.2-.1 2.4-.1 3.5-.1l1-1c-2.2-.1-4.3 0-6.6.1-.2 2.1-.1 4.2.3 6.2.5-.6 1.1-1.2 1.7-1.7 0-1.2 0-2.3.1-3.5zm-.6 6h.9c-.1-.3-.1-.5-.1-.8-.3.2-.6.5-.8.8zm5.7-2.9c0-.6 0-1.3.1-1.9-1.6 1.5-3.2 3.1-4.7 4.8.6 0 1.2.1 1.7.1.9-1 1.9-2 2.9-3zm8.7-11.4c.3-.2.5-.4.8-.6-4.4-.8-9.1-1.3-13.8-1.3-1.3 2.5-2.1 5.2-2.5 7.7h2.2c.5-2.2 1.2-4.5 2.3-6.7 3.7 0 7.4.3 11 .9zm28-16.2c-5-2.8-11.6-3.9-18.5-2.5l2.7.9c5.8-1.1 11.3-.4 15.8 1.6zm-19.5-.8c5.3 1.4 10.3 3.3 15 5.4h.1c-5.3-2.6-11-4.8-17.1-6.4-2.4.7-4.7 1.7-7 3-1.4.8-2.8 1.8-4.1 2.8.9.1 1.9.3 2.8.4 1-.8 2.1-1.5 3.3-2.2 2.3-1.2 4.7-2.3 7-3z"/><path class="st8" d="M54.8 68.7c.6-.3 1.2-.6 1.9-.9-.8-.3-1.6-.5-2.5-.8-4.9-1.5-10.1-2.5-15.5-3.1-2.2 2-4.1 4.2-5.5 6.5l-.6.9c4.8.1 9.5.7 13.9 1.5.3.1.6.1.9.2 2.4-1.6 4.9-3 7.4-4.3zm1.2.9l-1.8.9c-2.1 1.1-4.2 2.4-6.3 3.7-.9 4-1.5 8-1.7 11.9 0 .5-.1 1.1-.1 1.6 2.4-.6 4.8-1.4 7.1-2.4l.3-2.1c.7-4.7 1.9-9.4 3.6-14.1-.4.2-.7.3-1.1.5zm-10.6 6.3c-.6.4-1.1.8-1.7 1.2-2 1.5-3.9 3-5.8 4.6-.2 2.1-.2 4.1-.2 6.1V89c2.4-.2 4.7-.5 7-1 0-.5.1-1 .1-1.5.2-3.6.7-7.4 1.4-11.1-.3.1-.6.3-.8.5zm-11.1 7.3c.5-.4.9-.9 1.3-1.3h-3c-1.2 0-2.3 0-3.5.1-.1 1.2-.1 2.3 0 3.5 0 .6.1 1.2.2 1.7 0 .3.1.5.1.8v.2l.2-.2c1.5-1.6 3.1-3.2 4.7-4.8zm1.4.5c-.5.5-1 .9-1.5 1.4-1 1-2 2-2.9 3-.3.3-.5.6-.8.9 1.9.2 3.8.2 5.7.1V88c0-1.6 0-3.2.1-4.9l-.6.6zm8.3-8.5c.5-.4 1.1-.8 1.6-1.1-.9-.2-1.9-.3-2.8-.4-3.6-.5-7.3-.8-11-.9-1.1 2.2-1.9 4.5-2.3 6.7-.1.3-.2.7-.2 1 2.3-.1 4.6-.1 6.8 0h1.1c2.2-1.8 4.5-3.6 6.8-5.3zm30.6-13.7c.7-.2 1.3-.3 2-.5-1.6-1.4-3.5-2.6-5.6-3.6-4.5-2-10-2.7-15.8-1.6-.2 0-.5.1-.7.1 5.7 1.7 11 3.9 15.9 6.5.1 0 .1.1.2.1 1.3-.4 2.7-.7 4-1zm-.8 1.5c-1.1.3-2.1.5-3.2.8-1.9 3.3-3.5 6.7-4.8 10.1-.6 1.4-1.1 2.9-1.5 4.3 5.1-4.3 9.4-9.8 12.3-16-.9.4-1.8.6-2.8.8zm-6.2 1.8c-.7.2-1.3.4-2 .7-2.3.8-4.5 1.7-6.7 2.7-1.8 4.7-3.1 9.5-4 14.2-.1.7-.3 1.5-.4 2.2 1.1-.5 2.2-1.1 3.2-1.7 1.7-1 3.2-2 4.7-3.1.3-1.2.7-2.4 1.1-3.6 1.3-3.9 3-7.8 5.1-11.7-.3.1-.6.2-1 .3zm-1.1-1c.7-.2 1.3-.5 2-.7-.7-.3-1.4-.6-2.1-1-4.7-2.2-9.7-4-15-5.4-2.4.7-4.7 1.7-7 3-1.2.7-2.2 1.4-3.3 2.2-.3.2-.5.4-.8.6 6.2.8 12.2 2.3 17.7 4.2.2.1.4.1.5.2 2.7-1.2 5.3-2.2 8-3.1z"/><path class="st1" d="M40.6 138.5c10 0 18.2 8.2 18.2 18.2v1h39.9c5.2 0 9.4 4.2 9.4 9.4v1.4c0 3.6 2.9 6.5 6.5 6.5h28.6c3.6 0 6.5 2.9 6.5 6.5v11.6H-.3v-54.7"/><path class="st2" d="M0 189.2h156.7v39H0v-39z"/><path class="st10" d="M0 189.6c1.9 0 3.7-.6 5.2-1.7 1.5 1.1 3.3 1.7 5.2 1.7s3.7-.6 5.2-1.7c1.5 1.1 3.3 1.7 5.2 1.7 1.9 0 3.7-.6 5.2-1.7 1.5 1.1 3.3 1.7 5.2 1.7s3.7-.6 5.2-1.7c1.5 1.1 3.3 1.7 5.2 1.7s3.7-.6 5.2-1.7c1.5 1.1 3.3 1.7 5.2 1.7s3.7-.6 5.2-1.7c1.5 1.1 3.3 1.7 5.2 1.7 1.9 0 3.7-.6 5.2-1.7 1.5 1.1 3.3 1.7 5.2 1.7s3.7-.6 5.2-1.7c1.5 1.1 3.3 1.7 5.2 1.7 1.9 0 3.7-.6 5.2-1.7 1.5 1.1 3.3 1.7 5.2 1.7 1.9 0 3.7-.6 5.2-1.7 1.5 1.1 3.3 1.7 5.2 1.7s3.7-.6 5.2-1.7c1.5 1.1 3.3 1.7 5.2 1.7s3.7-.6 5.2-1.7c1.5 1.1 3.3 1.7 5.2 1.7 1.9 0 3.7-.6 5.2-1.7 1.5 1.1 3.3 1.7 5.2 1.7s3.7-.6 5.2-1.7c1.5 1.1 3.3 1.7 5.2 1.7 1.9 0 3.7-.6 5.2-1.7 1.5 1.1 3.3 1.7 5.2 1.7M0 198.7c1.9 0 3.7-.6 5.2-1.7 1.5 1.1 3.3 1.7 5.2 1.7s3.7-.6 5.2-1.7c1.5 1.1 3.3 1.7 5.2 1.7 1.9 0 3.7-.6 5.2-1.7 1.5 1.1 3.3 1.7 5.2 1.7s3.7-.6 5.2-1.7c1.5 1.1 3.3 1.7 5.2 1.7s3.7-.6 5.2-1.7c1.5 1.1 3.3 1.7 5.2 1.7s3.7-.6 5.2-1.7c1.5 1.1 3.3 1.7 5.2 1.7 1.9 0 3.7-.6 5.2-1.7 1.5 1.1 3.3 1.7 5.2 1.7s3.7-.6 5.2-1.7c1.5 1.1 3.3 1.7 5.2 1.7 1.9 0 3.7-.6 5.2-1.7 1.5 1.1 3.3 1.7 5.2 1.7 1.9 0 3.7-.6 5.2-1.7 1.5 1.1 3.3 1.7 5.2 1.7s3.7-.6 5.2-1.7c1.5 1.1 3.3 1.7 5.2 1.7s3.7-.6 5.2-1.7c1.5 1.1 3.3 1.7 5.2 1.7 1.9 0 3.7-.6 5.2-1.7 1.5 1.1 3.3 1.7 5.2 1.7s3.7-.6 5.2-1.7c1.5 1.1 3.3 1.7 5.2 1.7 1.9 0 3.7-.6 5.2-1.7 1.5 1.1 3.3 1.7 5.2 1.7M0 207.6c1.9 0 3.7-.6 5.2-1.7 1.5 1.1 3.3 1.7 5.2 1.7s3.7-.6 5.2-1.7c1.5 1.1 3.3 1.7 5.2 1.7 1.9 0 3.7-.6 5.2-1.7 1.5 1.1 3.3 1.7 5.2 1.7s3.7-.6 5.2-1.7c1.5 1.1 3.3 1.7 5.2 1.7s3.7-.6 5.2-1.7c1.5 1.1 3.3 1.7 5.2 1.7s3.7-.6 5.2-1.7c1.5 1.1 3.3 1.7 5.2 1.7 1.9 0 3.7-.6 5.2-1.7 1.5 1.1 3.3 1.7 5.2 1.7s3.7-.6 5.2-1.7c1.5 1.1 3.3 1.7 5.2 1.7 1.9 0 3.7-.6 5.2-1.7 1.5 1.1 3.3 1.7 5.2 1.7 1.9 0 3.7-.6 5.2-1.7 1.5 1.1 3.3 1.7 5.2 1.7s3.7-.6 5.2-1.7c1.5 1.1 3.3 1.7 5.2 1.7s3.7-.6 5.2-1.7c1.5 1.1 3.3 1.7 5.2 1.7 1.9 0 3.7-.6 5.2-1.7 1.5 1.1 3.3 1.7 5.2 1.7s3.7-.6 5.2-1.7c1.5 1.1 3.3 1.7 5.2 1.7 1.9 0 3.7-.6 5.2-1.7 1.5 1.1 3.3 1.7 5.2 1.7M0 217.1c1.9 0 3.7-.6 5.2-1.7 1.5 1.1 3.3 1.7 5.2 1.7s3.7-.6 5.2-1.7c1.5 1.1 3.3 1.7 5.2 1.7 1.9 0 3.7-.6 5.2-1.7 1.5 1.1 3.3 1.7 5.2 1.7s3.7-.6 5.2-1.7c1.5 1.1 3.3 1.7 5.2 1.7s3.7-.6 5.2-1.7c1.5 1.1 3.3 1.7 5.2 1.7s3.7-.6 5.2-1.7c1.5 1.1 3.3 1.7 5.2 1.7 1.9 0 3.7-.6 5.2-1.7 1.5 1.1 3.3 1.7 5.2 1.7s3.7-.6 5.2-1.7c1.5 1.1 3.3 1.7 5.2 1.7 1.9 0 3.7-.6 5.2-1.7 1.5 1.1 3.3 1.7 5.2 1.7 1.9 0 3.7-.6 5.2-1.7 1.5 1.1 3.3 1.7 5.2 1.7s3.7-.6 5.2-1.7c1.5 1.1 3.3 1.7 5.2 1.7s3.7-.6 5.2-1.7c1.5 1.1 3.3 1.7 5.2 1.7 1.9 0 3.7-.6 5.2-1.7 1.5 1.1 3.3 1.7 5.2 1.7s3.7-.6 5.2-1.7c1.5 1.1 3.3 1.7 5.2 1.7 1.9 0 3.7-.6 5.2-1.7 1.5 1.1 3.3 1.7 5.2 1.7"/><g id="Island2"><path class="st0" d="M25.9 193H2.4L16 175.1h9.9V193z"/><path class="st2" d="M32.7 184.1l6.8 8.9H12.4l6.7-8.9h13.6z"/><path class="st3" d="M19.1 184.1l-6.8 8.9h13.6l6.8-8.9H19.1zm6.8 8.9l-6.8-8.9 6.8-8.9 6.8 8.9 6.8 8.9H25.9z"/></g><g id="Island1"><path class="st0" d="M89.3 175.2H65.9L52.3 193h23.5l13.5-17.8z"/><path class="st2" d="M75.8 175.2L89.4 193H62.2l13.6-17.8z"/><path class="st2" d="M89.1 175.2l13.6 17.8H75.5l13.6-17.8z"/><path class="st2" d="M102.8 175.2l13.5 17.8H89.2l13.6-17.8z"/><path class="st3" d="M89.3 193l-6.7-8.9-3.7 4.9v-.1l-3.1 4.1-6.8-8.9-6.8 8.9h40.7l-6.7-8.9 6.7-8.9H89.3V193zm-6.8-8.9l-3.6 4.8 3.6-4.8zm27.2 0L103 193h13.5l-6.8-8.9z"/></g><g id="uae"><path class="st0" d="M917.4 92l12.3 5.4v90l-9.2 2.7v5H998v-5.4l-11.6-2.4c1.7-11 5.6-44.3-6.2-74.9-3.6-9.2-8.1-17.3-13-24.5.1-2.3.5-5 1.9-5.6 2.4-1.1 5.8-1.1 5.8-2s-.5-2.9-6.1-3.2c-4-.2-7.2.7-8.8 1.3-9.9-12-19.7-19.7-23.7-22.7l-1.7-1h-.6V42h-2.6v12.8h-1.8v33.6l-3.2-1.7s-3.1-.3-5.6.1c-2.6.5-4.3 1.7-4.1 3.2.2 1.7.7 2 .7 2zm55.3 36c4.8 32.7 0 55.5 0 55.5h-13.5c.5-3.2 5.7-24.3 1.5-58.8-4.5-37.1-19.2-59.2-19.2-59.2s25.7 24.6 31.2 62.5zm-33.9-54.7c1.8 4 4.1 9.8 6.5 17.3h-6.5V73.3zm0 23.1h8.2c.3.9.5 1.8.8 2.7h-9v-2.7zm0 4.5h9.5c.4 1.5.8 3.1 1.2 4.7v.2h-10.7v-4.9zm0 6.7H950c.4 1.6.7 3.2 1 4.9h-12.1v-4.9h-.1zm0 6.7h12.5c.3 1.6.6 3.2.8 4.9h-13.3v-4.9zm0 6.8h13.6c.1.5.2 1 .2 1.5h-13.8v-1.5zm0 7.2h14.5c.1.8.2 1.7.3 2.5h-14.8v-2.5zm0 4.3h15c.1 1.6.3 3.3.4 4.9h-15.4v-4.9zm0 6.8h15.5c.1 1.6.2 3.3.3 4.9h-15.8v-4.9zm0 6.7h15.9c.1 1.7.1 3.3.2 4.9h-16.1v-4.9zm0 6.7h16.1v1.9h-16.1v-1.9zm0 7.6H955v2.1h-16.1v-2.1h-.1zm0 3.9h16.1c0 1.7-.1 3.3-.1 4.9h-16v-4.9zm0 6.7h16c-.1 1.8-.1 3.4-.2 4.9h-15.7l-.1-4.9zm0 6.8h15.6c-.1 2.2-.3 3.8-.3 4.9h-15.3v-4.9z"/><path class="st1" d="M924.2 192.1l8.5-2.5V95.4l-12.2-5.3c.2-.1.5-.1.9-.2.7-.1 1.6-.2 2.6-.2.6 0 1.2 0 1.6.1l7.1 3.8V57.9h1l.9.5c1.6 1.2 4.3 3.3 7.6 6.2l-3.2 2.6c.2.3 14.4 22.1 18.7 57.9 2.2 18 2.2 34.8-.1 50v-.4c0-.8.1-1.7.1-2.5v-.5c0-.2.2-3.7.2-3.7 0-.8 0-1.7.1-2.5v-7.8l-.1-3.1v-.6h.1l-.1-2.1v-2.1s-.1-1.8-.1-2.5l-.2-4.2c0-.8-.1-1.7-.1-2.5l-.1-1.3-.2-2.8h-.1c-.1-1.3-.2-2.6-.3-4l-.2-2.7c-.1-.6-.1-1.1-.2-1.7l-.3-2.6-.3-3.1-.4-2.8-.4-1.6c-.1-.9-.3-1.7-.4-2.5h.1l-.7-3.5-.1-.7v-.2c-.2-.8-.3-1.5-.5-2.3h1.1l-2-4c-.2-.9-.4-1.8-.7-2.7h.1l-1-3.8c-.3-.9-.5-1.9-.8-2.8l-.5-1.9-1.2-3.9c-2-6.3-4.2-12.3-6.6-17.6l-5.7 1.2v112.3h20l-.2.9h19.5l.5-2.4c.2-1 4.8-23.7 0-56.6-3.1-20.9-11.9-37.8-19.6-49l1.5 1.8 1.4 1.7 2-.8c.9-.3 3.1-1.1 6-1.1-2.2 1.6-2.7 5.1-2.8 7.7v1l.6.8c5.3 7.7 9.6 15.8 12.7 23.9 11.3 29.3 8 61.1 6 73.3l-.5 2.8 11.7 2.4-70.7.1z"/></g><path class="st0" d="M1261.8 173.4l-1.8-56.7-.9-20c.1-.6.3-1.8-.3-3-.6-1.3-2.1-2.2-3-2.7-.2-3.9-.5-6.7-.9-6.7s-.8 2.7-.9 6.6c-1 .5-2.5 1.4-3.1 2.8-.6 1.2-.3 2.4-.2 3l-2.7 76.7h-14.3l-1.8-57.4s0-2.2-.4-3.1-1.3-1.5-2-1.9c-.1-4.5-.5-8-.9-8-.5 0-.8 3.4-.9 7.9-.8.4-1.8 1-2.3 2-.4.8-.4 3.1-.4 3.1l-1.8 57.4h-12.4v-41.1l-1.1-.1v-7.8h-7.7v7h-8.1v-11.9h-2.5c0-1-.3-3-2.1-5.3-1.7-2.1-4.4-3.7-6-4.5-.1-5.2-.6-9.3-1.3-9.3-.6 0-1.1 4.1-1.3 9.3-1.6.7-4.4 2.3-6.2 4.5-.4.4-.7.9-.9 1.3v-2h-3.3c1.2-1.1 12.1-11.7 10.3-23.2-1.8-11.2-12.8-18.1-21.5-24.3-6-4.2-9.2-7.2-10.9-9.5h-.2c.1-1.3.1-2.6.1-4.1 0-5.2-.6-9.3-1.3-10.3V42c-.1-.1-.2-.3-.3-.3-.1 0-.2.2-.3.3v.1c-.7.9-1.3 5.1-1.3 10.3 0 1.4 0 2.8.1 4.1h-.3c-1.7 2.4-4.9 5.3-10.9 9.5-8.7 6.2-19.7 13.1-21.4 24.3-1.8 11.5 9.1 22.1 10.3 23.2h-3.3v2c-.3-.4-.5-.9-.9-1.3-1.8-2.2-4.7-3.8-6.2-4.6-.1-5.2-.6-9.3-1.3-9.3-.7 0-1.2 4.2-1.3 9.3-1.6.8-4.3 2.4-5.9 4.5-1.8 2.2-2.1 4.3-2.1 5.3h-2.5v11.8l-8.2.2v-7h-7.7v7.8l-1 .1v41.1h-12.5l-1.8-57.3s0-2.2-.4-3.1c-.5-1-1.5-1.7-2.3-2-.1-4.5-.5-7.9-.9-7.9-.5 0-.8 3.5-.9 8-.7.4-1.6 1-2 1.9s-.4 3.1-.4 3.1l-1.8 57.4H1045l-2.7-76.7c.1-.6.3-1.9-.2-3-.6-1.3-2.1-2.3-3.1-2.7-.2-3.9-.5-6.6-.9-6.6s-.8 2.8-.9 6.7c-1 .5-2.4 1.4-3.1 2.7-.6 1.2-.4 2.4-.2 3l-.9 20-1.8 56.7h-4.4V191h239.7v-17.4l-4.7-.2zm-105.7-.2h-19.3v-20.5s-.1-5.5 4.6-8.7c2-1.3 3.6-2 5.1-2s3.1.6 5.1 2c4.7 3.2 4.6 8.7 4.6 8.7l-.1 20.5z"/><path class="st1" d="M1032.6 184.8v-5.4h4.3l1-33.3 1.2 33.3h49v-41.7l1-.1v-.2l15.9-.3v-11.7h2.4l.1-5.9c0-.2.1-.8.8-1.6.3-.3 1-1.1 2.7-2.1 1.1.7 2.1 1.5 2.6 2.1l.1.1s.1.1.1.2c.1.2.3.4.4.6l8-2.5-3.1 3.1h18.8l-11.5-10.4c-.1-.1-9.7-9.2-8.4-17.8 1.3-7.9 9.3-13.5 17-19 .7-.5 1.3-.9 2-1.4 4-2.8 7-5.2 9.2-7.3 2.2 2.2 5.2 4.5 9.2 7.3.6.5 1.3.9 2 1.4 7.7 5.4 15.7 11.1 17 18.9 1.4 8.6-8.2 17.7-8.3 17.8l-11.7 10.5h19.1l-3.2-3.2 8.4 2.3c.2-.4.3-.5.3-.5l.1-.1c.6-.8 1.7-1.6 2.7-2.1 1.2.7 2.1 1.5 2.7 2.1.7.9.8 1.5.8 1.6l.1 5.9h2.4v11.9h6.9l9 .1v.2l1.1.1v41.7h49l1.2-33.6.9 27.7v5.9h4.4v5.4h-227.7z"/><path class="st0" d="M1094.1 178.8v-35.5l16.9-.3v-11.6h2.3l.1-5.9h66l.1 5.9h2.2v11.9h17v35.4h-104.6v.1zm36.6-74.2c-2.4-2.2-7.1-8.3-6.5-12.4.9-5.4 7.8-10.3 14.6-15 0 0 1.4-1 2-1.4 2.2-1.5 4.1-2.9 5.7-4.2 1.6 1.3 3.5 2.7 5.7 4.3.6.4 2 1.4 2 1.4 6.7 4.7 13.7 9.6 14.5 15 .7 4.1-4.1 10.1-6.5 12.4l-15.9 14.2-15.6-14.3z"/><path class="st3" d="M1130.7 179.2h31.4v-26.5c0-1.2-.2-8.9-7.2-13.7-3.1-2.1-5.7-3-8.4-3h-.2c-3.5.1-6.3 1.6-8.3 3-7 4.8-7.3 12.5-7.2 13.7v26.5h-.1z"/><path class="st2" d="M1130.5 179.1l31.6-22.4.4 22.4h-32z"/><path class="st9" d="M789.5 220.2c0-2.5 2-4.5 4.5-4.5h19.6c2.4 0 4.4-2 4.4-4.5v-.9c0-3.5 2.9-6.4 6.4-6.4h27.3v-.7c0-6.9 5.6-12.5 12.5-12.5h157.2v-3.2c0-11.8 9.7-21.5 21.5-21.5h181.3c6.1-3.8 10.3-10.6 10.3-18.4v-2.2c0-17.1 14-31 31-31h99.1V57H781.2v171.1h8.3v-7.9z"/><path class="st11" d="M861.7 203.2c0-6.9 5.6-12.5 12.5-12.5h-10c-6.9 0-12.5 5.6-12.5 12.5v.7h10v-.7zm169.7-15.6c0-11.8 9.7-21.5 21.5-21.5h-10c-11.8 0-21.5 9.7-21.5 21.5v3.2h10v-3.2zm213.2-39.9v-2.2c0-17.1 14-31 31-31h-10c-17.1 0-31 14-31 31v2.2c0 7.7-4.1 14.5-10.3 18.4h10c6.2-3.9 10.3-10.7 10.3-18.4z"/><path class="st7" d="M1275.6 114.5c-17.1 0-31 14-31 31v2.2c0 7.7-4.1 14.5-10.3 18.4H1053c-11.8 0-21.5 9.7-21.5 21.5v3.2h333.2v-76.2l-89.1-.1z"/><path class="st7" d="M1031.4 190.7H874.2c-6.9 0-12.5 5.6-12.5 12.5v.7h-27.3c-3.5 0-6.4 2.9-6.4 6.4v.9c0 2.4-2 4.4-4.4 4.5H804c-2.5 0-4.5 2-4.5 4.5v8h565.2v-37.5h-333.3z"/><g id="Tower2"><path class="st1" d="M203.5 85.3h26.9v106.5h-26.9V85.3z"/><path class="st0" d="M230.3 85.3h13.3v106.5h-13.3V85.3z"/><path class="st2" d="M211.4 93.1h11.4v11h-11.4v-11zm.4 17.6h11.4v11h-11.4v-11z"/><path class="st1" d="M233.2 85.3h28.3v106.5h-28.3V85.3z"/><path class="st0" d="M234.5 85.3h40.1v106.5h-40.1V85.3z"/><path class="st2" d="M234.5 86.2h26.9v105.6h-26.9V86.2z"/><path class="st2" d="M237.5 93.1h11.4v11h-11.4v-11zm.4 17.6h11.4v11h-11.4v-11z"/></g><path class="st2" d="M321.2 130.6h11.4v11h-11.4v-11zm0 18h11.4v11h-11.4v-11z"/><g id="BigBen"><path class="st1" d="M422.5 83.3l-10.6 10.6h-.1c-.1 0-.1.1-.1.1l-7.8-7.8-2.1 2.1 7.8 7.8c0 1.2 1 2.2 2.2 2.2s2.2-1 2.2-2.2l10.6-10.6-2.1-2.2zM435.9 209v-93.2h1.8v-38h.6v-2.9h-4.2v-4.4l-9.8-18.3V39.3h-.2C423.3 37.5 413 7.6 412.2 3h-1c-.7 4.6-11.1 34.6-11.8 36.3h-.2V52l-9.7 18.3v4.4h-4.2v2.9h.7v38h1.8V209h-7.6v11.2h63.3V209h-7.6zm-24.1-94.1c-10.4 0-18.8-8.4-18.8-18.8s8.4-18.8 18.8-18.8 18.8 8.4 18.8 18.8-8.4 18.8-18.8 18.8z"/><circle class="st12" cx="425.9" cy="96.1" r="19"/><path class="st9" d="M425.8 77.3c-10.4 0-18.8 8.4-18.8 18.8s8.4 18.8 18.8 18.8 18.8-8.4 18.8-18.8-8.4-18.8-18.8-18.8zm2.2 18.8c0 1.2-1 2.2-2.2 2.2s-2.2-1-2.2-2.2l-7.8-7.8 2.1-2.1 7.8 7.8s0-.1.1-.1h.1l10.6-10.6 2.1 2.2L428 96.1z"/><path class="st0" d="M425.9 93.9h-.1c-.1 0-.1.1-.1.1l-7.8-7.8-2.1 2.1 7.8 7.8c0 1.2 1 2.2 2.2 2.2s2.2-1 2.2-2.2l10.6-10.6-2.1-2.2-10.6 10.6z"/><path class="st0" d="M449.9 209v-93.2h1.8v-38h.6v-2.9h-4.2v-4.4l-9.8-18.3V39.3h-.2C437.3 37.5 427 7.6 426.2 3h-.3l-12.1 36h-.3c0 .1-.1.2-.1.3h-.2V52l-9.7 18.3v4.4h-4.2v.4h.5v2.5h.2v38h1.8V209h-7.6v11.2h63.3V209h-7.6zm-24.1-94.1c-10.4 0-18.8-8.4-18.8-18.8s8.4-18.8 18.8-18.8 18.8 8.4 18.8 18.8-8.4 18.8-18.8 18.8z"/><path class="st1" d="M425.9 3h-14.1l-12 36h14zm-26.6 72.1h-13.5V116h14V75.1z"/></g><g id="Tower7"><path class="st1" d="M452.6 199.8v-74.5H345.3v74.5h107.3z"/><path class="st2" d="M431.5 152.2h11.4v11h-11.4v-11zm-25.5 0h11.4v11H406v-11zm-25.5 0h11.4v11h-11.4v-11zm-25.5 0h11.4v11H355v-11zm51 21.3h11.4v11H406v-11zm-25.5 0h11.4v11h-11.4v-11zm51-42.5h11.4v11h-11.4v-11zm-25.5 0h11.4v11H406v-11zm-25.5 0h11.4v11h-11.4v-11zm-25.5 0h11.4v11H355v-11z"/></g><path class="st1" d="M152.2 200.2h630.3v27.7H152.2v-27.7z"/><path class="st0" d="M756.6 121.3l14.6 19.2.1.1h-11.1l15.7 20.6.1.1h-11.1l15.7 20.6.1.2h-20.5v27.4H753v-27.4h-20.5l.1-.2 15.7-20.6h-11.1l.1-.1 15.7-20.6h-11.1l.1-.1 14.6-19.2z"/><path class="st2" d="M756.6 140.6v69H753v-27.4h-20.5l.1-.2 15.7-20.6h-11.1l.1-.1 15.7-20.6h-11.1l.1-.1 14.6-19.2v19.2z"/><path class="st13" d="M565.9 126.1l-10.8-14.2h7.7s0-.1-.1-.1l-10.8-14.2h7.7l-.1-.1-10.1-13.3-10.1 13.3-.1.1h7.7l-10.8 14.2s0 .1-.1.1h7.7l-10.8 14.2-.1.1h14.1v18.9h5v-18.9l14-.1c.1.1 0 0 0 0z"/><path class="st0" d="M564.1 126.1l-10.8-14.2h7.7s0-.1-.1-.1l-10.8-14.2h7.7l-.1-.1-10.1-13.3-10.1 13.3-.1.1h7.7l-10.8 14.2s0 .1-.1.1h7.7l-10.8 14.2-.1.1h14.1v18.9h5v-18.9h14.1l-.1-.1z"/><path class="st2" d="M547.6 97.5V145h-2.5v-18.9H531l.1-.1 10.8-14.2h-7.7s0-.1.1-.1l10.8-14.2h-7.7l.1-.1 10.1-13.3v13.4z"/><g id="Towers"><path class="st0" d="M275 34.7h40.1v106.5H275V34.7z"/><path class="st2" d="M275 34.7h26.9v106.5H275V34.7z"/><path class="st1" d="M273.7 34.7H302v106.5h-28.3V34.7z"/><path class="st2" d="M280.1 44.1h11.4v11h-11.4v-11zm0 17.9h11.4v11h-11.4V62zm0 18h11.4v11h-11.4V80zm0 18h11.4v11h-11.4V98zm0 17.9h11.4v11h-11.4v-11z"/><path class="st0" d="M243.9 34.7H284v106.5h-40.1V34.7z"/><path class="st1" d="M243.9 34.7h26.9v106.5h-26.9V34.7z"/><path class="st0" d="M270.8 34.7h13.3v106.5h-13.3V34.7z"/><path class="st2" d="M250 44.1h11.4v11H250v-11zm0 17.9h11.4v11H250V62zm0 18h11.4v11H250V80zm0 35.9h11.4v8.8H250v-8.8zm0-17.9h11.4v11H250V98z"/></g><g id="House1"><path class="st0" d="M648.1 119l22.4 29.4V201h-44.8v-52.7l22.4-29.3H542.2L520 148.2l-.1.2v52.7h105.9v-52.7l22.3-29.4z"/><path class="st1" d="M625.8 201.1v-52.7l22.4-29.4h-106L520 148.2l-.1.2v52.7h105.9z"/><path class="st3" d="M648.2 119l-22.4 29.4h-106l.1-.2 22.3-29.2h106z"/><path class="st1" d="M604.5 127.4l8.2 10.8h-16.5l8.3-10.8zm-46.7 0l8.2 10.8h-16.4l8.2-10.8z"/><path class="st2" d="M605 177.6h11.2v15.2H605v-15.2zm-25.2 0H591v15.2h-11.2v-15.2zM605 155h11.2v15.2H605V155zm-25.2 0H591v15.2h-11.2V155zm62.7 0h11.2v15.2h-11.2V155zm-87.9 0h11.2v15.2h-11.2V155zm-25.1 0h11.2v15.2h-11.2V155zm113 22.6h11.2v15.2h-11.2v-15.2zm-87.9 0h11.2v15.2h-11.2v-15.2zm-25.1 0h11.2v15.2h-11.2v-15.2z"/></g><g id="House2"><path class="st0" d="M521.9 118l22.4 29.4V200h-44.8v-52.7l22.4-29.3H416l-22.3 29.3-.1.2v52.6l105.9-.1v-52.5l22.4-29.5z"/><path class="st1" d="M499.5 200v-52.7l22.4-29.4H416l-22.3 29.3-.1.2v52.7c35.3-.1 70.6-.1 105.9-.1z"/><path class="st3" d="M521.9 117.9l-22.4 29.5H393.6l.1-.2 22.3-29.3h105.9z"/><path class="st1" d="M478.2 126.4l8.2 10.8h-16.5l8.3-10.8zm-46.6 0l8.2 10.8h-16.4l8.2-10.8z"/><path class="st2" d="M478.7 176.6h11.2v15.2h-11.2v-15.2zm-25.2 0h11.2v15.2h-11.2v-15.2zm25.2-22.6h11.2v15.2h-11.2V154zm-25.2 0h11.2v15.2h-11.2V154zm62.8 0h11.2v15.2h-11.2V154zm-87.9 0h11.2v15.2h-11.2V154zm-25.2 0h11.2v15.2h-11.2V154zm113.1 22.6h11.2v15.2h-11.2v-15.2zm-87.9 0h11.2v15.2h-11.2v-15.2zm-25.2 0h11.2v15.2h-11.2v-15.2z"/></g><path class="st2" d="M169.8 178.1H181v15.2h-11.2v-15.2zm119.9-4.6h11.4v11h-11.4v-11zm-76.6 0h11.4v11h-11.4v-11z"/><g id="Tower6"><path class="st1" d="M310.7 209.8v-84.5H203.5v84.5h107.2z"/><path class="st2" d="M289.7 152.2h11.4v11h-11.4v-11zm-25.5 0h11.4v11h-11.4v-11zm-25.6 0H250v11h-11.4v-11zm-25.5 0h11.4v11h-11.4v-11zm51.1 21.3h11.4v11h-11.4v-11zm-25.6 0H250v11h-11.4v-11zm51.1-42.5h11.4v11h-11.4v-11zm-25.5 0h11.4v11h-11.4v-11zm-25.6 0H250v11h-11.4v-11zm-25.5 0h11.4v11h-11.4v-11z"/><path class="st0" d="M345.4 125.3h-10.7v74.5h10.7v-74.5zm-10.7 0v74.5h-25.2v-74.5h25.2z"/><path class="st2" d="M345.3 130.8v11h-24.4v-11h24.4zm0 42.5v11h-24.4v-11h24.4zm0-10.3h-24.4v-11h24.4v11z"/></g><g id="House3"><path class="st1" d="M150.6 199.6l.1-.2 22.3-29.3h53l-22.4 29.4v28.4h-53v-28.3zm53 0V228H226v-57.8l-22.4 29.4z"/><path class="st3" d="M226 170l-22.4 29.6h-53l.1-.2L173 170h53z"/><path class="st2" d="M182.8 206.2H194v15.2h-11.2v-15.2zm-22.7 0h11.2v15.2h-11.2v-15.2z"/><path class="st0" d="M226 170.2l22.4 29.4V228h-44.8v-28.4l22.4-29.4z"/><path class="st2" d="M220.4 206.2h11.2v15.2h-11.2v-15.2z"/><path class="st1" d="M186 178.6l8.2 10.7h-16.4l8.2-10.7z"/></g><g id="House4"><path class="st1" d="M231.7 199.5l.1-.2 22.3-29.3h53l-22.4 29.4v28.4h-53v-28.3zm53 0v28.4h22.4v-57.8l-22.4 29.4z"/><path class="st3" d="M307.1 170.1l-22.4 29.4h-53l.1-.2 22.3-29.2h53z"/><path class="st2" d="M263.9 206.1h11.2v15.2h-11.2v-15.2zm-22.7 0h11.2v15.2h-11.2v-15.2z"/><path class="st0" d="M307.1 170.1l22.4 29.4v28.4h-44.8v-28.4l22.4-29.4z"/><path class="st2" d="M301.5 206.1h11.2v15.2h-11.2v-15.2z"/><path class="st1" d="M264.9 178.5l8.2 10.7h-16.4l8.2-10.7z"/></g><g id="House5"><path class="st1" d="M313.6 199.5l.1-.2L336 170h53l-22.4 29.4v28.4h-53v-28.3zm53 0v28.4H389v-57.8l-22.4 29.4z"/><path class="st3" d="M389 170.1l-22.4 29.4h-53l.1-.2 22.3-29.2h53z"/><path class="st2" d="M345.9 206.1H357v15.2h-11.2v-15.2h.1zm-22.8 0h11.2v15.2h-11.2v-15.2z"/><path class="st0" d="M389.1 170.1l22.4 29.4v28.4h-44.8v-28.4l22.4-29.4z"/><path class="st2" d="M383.5 206.1h11.2v15.2h-11.2v-15.2z"/><path class="st1" d="M347.4 178.5l8.2 10.7h-16.4l8.2-10.7z"/></g><g id="House9"><path class="st1" d="M432 199.5l.1-.2 22.3-29.3h53L485 199.4v28.4h-53v-28.3zm53 0v28.4h22.4v-57.8L485 199.5z"/><path class="st3" d="M507.4 170L485 199.5h-53l.1-.2 22.3-29.3h53z"/><path class="st2" d="M464.2 206.1h11.2v15.2h-11.2v-15.2zm-22.7 0h11.2v15.2h-11.2v-15.2z"/><path class="st0" d="M507.4 170.1l22.4 29.4v28.4H485v-28.4l22.4-29.4z"/><path class="st2" d="M501.8 206.1H513v15.2h-11.2v-15.2z"/><path class="st1" d="M465.6 178.5l8.2 10.7h-16.4l8.2-10.7z"/></g><g id="House7_1_"><path class="st1" d="M515.3 199.5l.1-.2 22.3-29.3h53l-22.4 29.4v28.4h-53v-28.3zm53 0v28.4h22.4v-57.8l-22.4 29.4z"/><path class="st3" d="M590.7 170.1l-22.4 29.4h-53l.1-.2 22.3-29.2h53z"/><path class="st2" d="M547.5 206.1h11.2v15.2h-11.2v-15.2zm-22.7 0H536v15.2h-11.2v-15.2z"/><path class="st0" d="M590.7 170.1l22.4 29.4v28.4h-44.8v-28.4l22.4-29.4z"/><path class="st2" d="M585.1 206.1h11.2v15.2h-11.2v-15.2z"/><path class="st1" d="M550.1 178.5l8.2 10.7h-16.4l8.2-10.7z"/></g><g id="House7_2_"><path class="st1" d="M767 175.5l.1-.2 22.3-29.3h53L820 175.4v28.4h-53v-28.3zm53 0v28.4h22.4v-57.8L820 175.5z"/><path class="st3" d="M842.4 146.1L820 175.5h-53l.1-.2 22.3-29.2h53z"/><path class="st2" d="M799.2 182.1h11.2v15.2h-11.2v-15.2zm-22.7 0h11.2v15.2h-11.2v-15.2z"/><path class="st0" d="M842.4 146.1l22.4 29.4v28.4H820v-28.4l22.4-29.4z"/><path class="st2" d="M836.8 182.1H848v15.2h-11.2v-15.2z"/><path class="st1" d="M798.5 154.5l8.2 10.7h-16.4l8.2-10.7z"/></g><path class="st2" d="M399 159.2v69h-3.6v-27.4h-20.5l.1-.2 15.7-20.6h-11.1l.1-.1 15.7-20.6h-11.1l.1-.1L399 140v19.2z"/><g id="House6"><path class="st1" d="M693.4 199.5l.1-.2 22.3-29.3h53l-22.4 29.4v28.4h-53v-28.3zm53 0v28.4h22.4v-57.8l-22.4 29.4z"/><path class="st3" d="M768.8 170l-22.4 29.5h-53l.1-.2 22.3-29.3h53z"/><path id="Window1_1_" class="st2" d="M725.5 206.1h11.2v15.2h-11.2v-15.2zm-22.5 0h11.2v15.2H703v-15.2z"/><path class="st0" d="M768.8 170.1l22.5 29.4v28.4h-44.9v-28.4l22.4-29.4z"/><path class="st2" d="M763.2 206.1h11.2v15.2h-11.2v-15.2z"/></g><path class="st0" d="M892.7 164.1l10.7 14 .1.1h-8.1l11.5 15.1s0 .1.1.1h-8.1l11.5 15 .1.1h-14.9v20h-5.3v-20h-15l.1-.1 11.5-15h-8.1s0-.1.1-.1l11.5-15.1H882l.1-.1 10.6-14z"/><path class="st2" d="M892.7 178.2v50.3h-2.6v-20h-15l.1-.1 11.5-15h-8.1s0-.1.1-.1l11.5-15.1H882l.1-.1 10.7-14-.1 14.1z"/><path class="st14" d="M1310.4 107.8h2.8m-2.8 2.5h2.8m-4.4-1.3h2.7"/><g id="Pyramid3"><path class="st15" d="M1347.4 143.1h-96.6l48-64h.6l48 64z"/><path class="st7" d="M1298.3 143.1h-47.5l48-64h.6l-1.1 64z"/></g><path class="st14" d="M1306.5 116.1h2.8m-2.8 2.4h2.8m-4.4-1.2h2.8"/><path class="st16" d="M1270.1 130.4h2.8m-2.8 2.5h2.8m-4.5-1.2h2.8"/><path class="st14" d="M1311 131h-2.8m2.8 2.5h-2.8m4.4-1.3h-2.7m8.8-10.6h2.8m-2.8 2.5h2.8m-2.5-1.3h2.7"/><path class="st16" d="M1288.3 115h2.8m-2.8 2.4h2.8m-2.5-1.2h2.8m-15.2 2.6h2.7m-2.7 2.5h2.7m-2.4-1.2h2.7"/><path class="st17" d="M1227.5 161.1c21.3 10.5 29.9 15.5 51.3 26s30.2-7.5 51.5 3.1 16.9 29.5 38.3 40"/><g id="Path"><path class="st18" d="M1227.5 161.1l3.6 1.8"/><path class="st19" d="M1238.6 166.7c14.1 7.1 23 12 40.2 20.5 21.4 10.5 30.2-7.5 51.5 3.1 18.7 9.2 17.6 24.9 31.4 35.7"/><path class="st18" d="M1365.2 228.3c1.1.7 2.3 1.3 3.5 1.9"/></g><path class="st14" d="M1283.9 111.4h4.4m-4.4 3.9h4.4m-7-2h4.4"/><g id="Pyramid2"><path class="st15" d="M1342.3 167.1h-152.5l75.8-101h.9l75.8 101z"/><path class="st7" d="M1264.8 167.1h-75l75.8-101h.9l-1.7 101z"/><path class="st14" d="M1277.8 124.4h4.4m-4.4 4h4.4m-7-2h4.4m5.2 21.6h-4.4m4.4 3.9h-4.4m7-2h-4.3m13.9-16.7h4.4m-4.4 3.9h4.4m-4-2h4.4"/><path class="st16" d="M1256.1 113.4h-4.3m4.3 4h-4.3m7-2h-4.4m-5.2 21.6h4.3m-4.3 3.9h4.3m-6.9-2h4.3m-13.9-16.8h-4.4m4.4 4h-4.4m3.9-2h-4.3"/></g><path class="st14" d="M1331.7 124.6h3.4m-3.4 3h3.4m-5.4-1.5h3.4"/><g id="Pyramid1"><path class="st15" d="M1376.2 167.1H1260l57.8-77h.6l57.8 77z"/><path class="st7" d="M1317.1 167.1H1260l57.8-77h.6l-1.3 77z"/><path class="st14" d="M1327.1 134.6h3.3m-3.3 3h3.3m-5.3-1.5h3.3m4 16.4h-3.3m3.3 3h-3.3m5.3-1.5h-3.3m10.6-12.8h3.3m-3.3 3h3.3m-3-1.5h3.3"/><path class="st16" d="M1309.2 133.4h-4.4m4.4 4h-4.4m7-2h-4.4m-5.2 21.6h4.4m-4.4 3.9h4.4m-7-2h4.4m-14-16.7h-4.3m4.3 3.9h-4.3m3.9-2h-4.4"/></g><path class="st11" d="M1239.6 149.1h-.2c-4.9 0-8.9 4-8.9 8.9v9.1h18V158c.1-4.9-3.9-8.9-8.9-8.9z"/><path class="st15" d="M1230.5 167.1v-9l18.1 9h-18.1z"/><g id="House5_1_"><path class="st1" d="M781.1 208.8l.1-.1 15.6-20.5H834l-15.7 20.6v19.9h-37.2v-19.9zm37.2 0v19.9H834v-40.5l-15.7 20.6z"/><path class="st3" d="M834 188.1l-15.7 20.7h-37.2l.1-.1 15.6-20.6H834z"/><path class="st2" d="M803.7 213.4h7.9v10.7h-7.9v-10.7zm-15.9 0h7.9v10.7h-7.9v-10.7z"/><path class="st0" d="M834 188.1l15.7 20.7v19.9h-31.4v-19.9l15.7-20.7z"/><path class="st2" d="M830 213.4h7.9v10.7H830v-10.7z"/></g><path class="st1" d="M729.4 177.8l8.2 10.7h-16.4l8.2-10.7zm77.4 15.9l6.6 8.6h-13.2l6.6-8.6z"/><path class="st2" d="M674.1 180.6v47.5h-2.5v-18.9h-14.1l.1-.1 10.8-14.2h-7.7s0-.1.1-.1l10.8-14.2h-7.7l.1-.1 10.1-13.3v13.4z"/><path class="st0" d="M674.1 180.6v47.5h2.5v-18.9h14.1l-.1-.1-10.8-14.2h7.7s0-.1-.1-.1l-10.8-14.2h7.7l-.1-.1-10.1-13.3v13.4zM399 159.2v69h3.6v-27.4h20.5l-.1-.2-15.8-20.6h11.1l-.1-.1-15.7-20.6h11.1l-.1-.1-14.5-19.3v19.3z"/></svg>